<?xml version="1.0" standalone="no"?>
<!DOCTYPE svg PUBLIC "-//W3C//DTD SVG 1.1//EN" "http://www.w3.org/Graphics/SVG/1.1/DTD/svg11.dtd" >
<svg xmlns="http://www.w3.org/2000/svg" xmlns:xlink="http://www.w3.org/1999/xlink" version="1.1">
<metadata>
Created by FontForge 20170910 at Wed Jul 25 09:46:09 2018
 By Jimmy Wärting
Nirmana Visual
</metadata>
<defs>
<font id="NEONABSOLUTESANS1Regular" horiz-adv-x="0" >
  <font-face 
    font-family="NEON ABSOLUTE SANS 1"
    font-weight="400"
    font-stretch="normal"
    units-per-em="1000"
    panose-1="0 0 0 0 0 0 0 0 0 0"
    ascent="800"
    descent="-200"
    x-height="597"
    cap-height="850"
    bbox="-45.3846 -314 1030.67 887.667"
    underline-thickness="50"
    underline-position="-150"
    unicode-range="U+000A-00A0"
  />
<missing-glyph horiz-adv-x="608" 
 />
    <glyph glyph-name=".notdef" horiz-adv-x="608" 
 />
    <glyph glyph-name=".notdef" horiz-adv-x="608" 
 />
    <glyph glyph-name=".null" 
 />
    <glyph glyph-name="nonmarkingreturn" horiz-adv-x="333" 
 />
    <glyph glyph-name="LF" unicode="&#xa;" 
 />
    <glyph glyph-name="controlCR" unicode="&#xd;" 
 />
    <glyph glyph-name="space" unicode=" " horiz-adv-x="375" 
 />
    <glyph glyph-name="A" unicode="A" horiz-adv-x="695" 
d="M676 23q3 -8 0 -15.5t-11 -9.5q-3 -2 -7 -2q-13 0 -18 13l-295 767l-291 -767q-4 -13 -18 -13q-3 0 -6 2q-8 2 -11.5 9.5t-0.5 14.5l309 815v1l3 3l0.5 1.5t1 1.5t1.5 1l1 1q3 2 4 2l2 1h1q3 1 4 1t4 -1h1h2q0 -1 0.5 -1h0.5q1 0 3 -2l1 -1l2 -1l2 -2.5t2 -3.5v-1z
M473 168l61 -145q3 -7 0 -14.5t-10 -10.5q-4 -2 -8 -2q-13 0 -18 12l-56 133h-251q-8 0 -14 6t-6 14t6 13.5t14 5.5h264q4 0 7 -1q2 -1 5 -3q0 -1 0.5 -1t0.5 -1q3 -2 5 -6z" />
    <glyph glyph-name="A" unicode="&#xc5;" horiz-adv-x="695" 
d="M676 23q3 -8 0 -15.5t-11 -9.5q-3 -2 -7 -2q-13 0 -18 13l-295 767l-291 -767q-4 -13 -18 -13q-3 0 -6 2q-8 2 -11.5 9.5t-0.5 14.5l309 815v1l3 3l0.5 1.5t1 1.5t1.5 1l1 1q3 2 4 2l2 1h1q3 1 4 1t4 -1h1h2q0 -1 0.5 -1h0.5q1 0 3 -2l1 -1l2 -1l2 -2.5t2 -3.5v-1z
M473 168l61 -145q3 -7 0 -14.5t-10 -10.5q-4 -2 -8 -2q-13 0 -18 12l-56 133h-251q-8 0 -14 6t-6 14t6 13.5t14 5.5h264q4 0 7 -1q2 -1 5 -3q0 -1 0.5 -1t0.5 -1q3 -2 5 -6z" />
    <glyph glyph-name="A" unicode="&#xc4;" horiz-adv-x="695" 
d="M676 23q3 -8 0 -15.5t-11 -9.5q-3 -2 -7 -2q-13 0 -18 13l-295 767l-291 -767q-4 -13 -18 -13q-3 0 -6 2q-8 2 -11.5 9.5t-0.5 14.5l309 815v1l3 3l0.5 1.5t1 1.5t1.5 1l1 1q3 2 4 2l2 1h1q3 1 4 1t4 -1h1h2q0 -1 0.5 -1h0.5q1 0 3 -2l1 -1l2 -1l2 -2.5t2 -3.5v-1z
M473 168l61 -145q3 -7 0 -14.5t-10 -10.5q-4 -2 -8 -2q-13 0 -18 12l-56 133h-251q-8 0 -14 6t-6 14t6 13.5t14 5.5h264q4 0 7 -1q2 -1 5 -3q0 -1 0.5 -1t0.5 -1q3 -2 5 -6z" />
    <glyph glyph-name="A" unicode="&#xc3;" horiz-adv-x="695" 
d="M676 23q3 -8 0 -15.5t-11 -9.5q-3 -2 -7 -2q-13 0 -18 13l-295 767l-291 -767q-4 -13 -18 -13q-3 0 -6 2q-8 2 -11.5 9.5t-0.5 14.5l309 815v1l3 3l0.5 1.5t1 1.5t1.5 1l1 1q3 2 4 2l2 1h1q3 1 4 1t4 -1h1h2q0 -1 0.5 -1h0.5q1 0 3 -2l1 -1l2 -1l2 -2.5t2 -3.5v-1z
M473 168l61 -145q3 -7 0 -14.5t-10 -10.5q-4 -2 -8 -2q-13 0 -18 12l-56 133h-251q-8 0 -14 6t-6 14t6 13.5t14 5.5h264q4 0 7 -1q2 -1 5 -3q0 -1 0.5 -1t0.5 -1q3 -2 5 -6z" />
    <glyph glyph-name="A" unicode="&#xc2;" horiz-adv-x="695" 
d="M676 23q3 -8 0 -15.5t-11 -9.5q-3 -2 -7 -2q-13 0 -18 13l-295 767l-291 -767q-4 -13 -18 -13q-3 0 -6 2q-8 2 -11.5 9.5t-0.5 14.5l309 815v1l3 3l0.5 1.5t1 1.5t1.5 1l1 1q3 2 4 2l2 1h1q3 1 4 1t4 -1h1h2q0 -1 0.5 -1h0.5q1 0 3 -2l1 -1l2 -1l2 -2.5t2 -3.5v-1z
M473 168l61 -145q3 -7 0 -14.5t-10 -10.5q-4 -2 -8 -2q-13 0 -18 12l-56 133h-251q-8 0 -14 6t-6 14t6 13.5t14 5.5h264q4 0 7 -1q2 -1 5 -3q0 -1 0.5 -1t0.5 -1q3 -2 5 -6z" />
    <glyph glyph-name="A" unicode="&#xc1;" horiz-adv-x="695" 
d="M676 23q3 -8 0 -15.5t-11 -9.5q-3 -2 -7 -2q-13 0 -18 13l-295 767l-291 -767q-4 -13 -18 -13q-3 0 -6 2q-8 2 -11.5 9.5t-0.5 14.5l309 815v1l3 3l0.5 1.5t1 1.5t1.5 1l1 1q3 2 4 2l2 1h1q3 1 4 1t4 -1h1h2q0 -1 0.5 -1h0.5q1 0 3 -2l1 -1l2 -1l2 -2.5t2 -3.5v-1z
M473 168l61 -145q3 -7 0 -14.5t-10 -10.5q-4 -2 -8 -2q-13 0 -18 12l-56 133h-251q-8 0 -14 6t-6 14t6 13.5t14 5.5h264q4 0 7 -1q2 -1 5 -3q0 -1 0.5 -1t0.5 -1q3 -2 5 -6z" />
    <glyph glyph-name="A" unicode="&#xc0;" horiz-adv-x="695" 
d="M676 23q3 -8 0 -15.5t-11 -9.5q-3 -2 -7 -2q-13 0 -18 13l-295 767l-291 -767q-4 -13 -18 -13q-3 0 -6 2q-8 2 -11.5 9.5t-0.5 14.5l309 815v1l3 3l0.5 1.5t1 1.5t1.5 1l1 1q3 2 4 2l2 1h1q3 1 4 1t4 -1h1h2q0 -1 0.5 -1h0.5q1 0 3 -2l1 -1l2 -1l2 -2.5t2 -3.5v-1z
M473 168l61 -145q3 -7 0 -14.5t-10 -10.5q-4 -2 -8 -2q-13 0 -18 12l-56 133h-251q-8 0 -14 6t-6 14t6 13.5t14 5.5h264q4 0 7 -1q2 -1 5 -3q0 -1 0.5 -1t0.5 -1q3 -2 5 -6z" />
    <glyph glyph-name="B" unicode="B" horiz-adv-x="663" 
d="M545 591q0 18 19 18q6 0 10 -2.5t6.5 -7t2.5 -10.5q-2 -66 -61 -116t-162 -71h-4q-16 0 -19 15q-2 8 2.5 15t12.5 8q87 18 139 58.5t54 92.5zM496 734q-11 11 -25 20.5t-39.5 22.5t-55.5 21.5t-72.5 16.5t-91.5 7.5t-113 -5.5v-808q0 -8 -5.5 -14t-13.5 -6t-13.5 6
t-5.5 14v821v1v1q-1 8 4 14.5t13 6.5q145 18 261 -5.5t183 -84.5q63 -58 61 -129q0 -8 -5.5 -13.5t-13.5 -5.5h-1q-8 1 -13.5 6.5t-4.5 13.5q1 54 -49 99zM607 338q31 -55 33 -111.5t-26 -101.5q-16 -27 -43 -49t-71.5 -42.5t-115 -32.5t-161.5 -12q-32 0 -65 2
q-8 0 -13.5 6t-4.5 14v1.5v0.5v1v2v597q0 8 5.5 13.5t13.5 5.5t13.5 -5.5t5.5 -13.5v-584q96 -3 170 6t119.5 27.5t72 38.5t41.5 44q22 36 20 82t-28 91q-21 36 -47 57t-46 22q-8 0 -13.5 5.5t-5.5 13.5q0 5 2.5 9.5t7 7.5t9.5 3h1q21 0 43.5 -12.5t44 -34.5t38.5 -51z" />
    <glyph glyph-name="C" unicode="C" horiz-adv-x="788" 
d="M754 333.5q8 -1.5 12.5 -8.5t2.5 -15q-30 -132 -119.5 -216t-201.5 -84q-8 0 -14 5.5t-6 13.5t6 13.5t14 5.5q98 0 177 75.5t106 195.5q2 8 8.5 12t14.5 2.5zM394 793q-60 0 -114.5 -29.5t-94 -79.5t-63 -119t-23.5 -144q0 -101 39.5 -187t107.5 -136t148 -50
q8 0 14 -5.5t6 -13.5t-6 -13.5t-14 -5.5q-90 0 -167 55t-121.5 149.5t-44.5 206t44.5 206.5t121.5 150t167 55q8 0 14 -5.5t6 -13.5t-6 -14t-14 -6zM642 564q-22 80 -66.5 113.5t-139.5 41.5q-8 1 -13 7t-4 14q0 8 6.5 13.5t14.5 4.5q42 -4 74.5 -12.5t59 -22t45.5 -33.5
t33.5 -47t24.5 -62q19 1 33 8q-25 62 -65.5 108t-91 71t-105.5 25q-8 0 -14 6t-6 14t6 13.5t14 5.5q97 0 179.5 -65t122.5 -174h1v-1v-2q0 -1 0.5 -1t0.5 -1v-2v-1q0 -3 -1 -6q-5 -18 -30 -27.5t-44 -9.5q-12 0 -20 3q-9 5 -13 17q-1 0 -1.5 0.5t-0.5 1.5z" />
    <glyph glyph-name="C" unicode="&#xc7;" horiz-adv-x="788" 
d="M754 333.5q8 -1.5 12.5 -8.5t2.5 -15q-30 -132 -119.5 -216t-201.5 -84q-8 0 -14 5.5t-6 13.5t6 13.5t14 5.5q98 0 177 75.5t106 195.5q2 8 8.5 12t14.5 2.5zM394 793q-60 0 -114.5 -29.5t-94 -79.5t-63 -119t-23.5 -144q0 -101 39.5 -187t107.5 -136t148 -50
q8 0 14 -5.5t6 -13.5t-6 -13.5t-14 -5.5q-90 0 -167 55t-121.5 149.5t-44.5 206t44.5 206.5t121.5 150t167 55q8 0 14 -5.5t6 -13.5t-6 -14t-14 -6zM642 564q-22 80 -66.5 113.5t-139.5 41.5q-8 1 -13 7t-4 14q0 8 6.5 13.5t14.5 4.5q42 -4 74.5 -12.5t59 -22t45.5 -33.5
t33.5 -47t24.5 -62q19 1 33 8q-25 62 -65.5 108t-91 71t-105.5 25q-8 0 -14 6t-6 14t6 13.5t14 5.5q97 0 179.5 -65t122.5 -174h1v-1v-2q0 -1 0.5 -1t0.5 -1v-2v-1q0 -3 -1 -6q-5 -18 -30 -27.5t-44 -9.5q-12 0 -20 3q-9 5 -13 17q-1 0 -1.5 0.5t-0.5 1.5z" />
    <glyph glyph-name="D" unicode="D" horiz-adv-x="700" 
d="M345 832q91 0 167.5 -56t121.5 -152t45 -209.5t-45 -209.5t-121.5 -152t-167.5 -56q-8 0 -13.5 5.5t-5.5 14t5.5 14t13.5 5.5q80 0 148 50.5t107.5 138t39.5 190t-39.5 190t-107.5 138t-148 50.5q-8 0 -13.5 6t-5.5 14t5.5 13.5t13.5 5.5zM292 37q8 0 13.5 -6t5.5 -14
t-5.5 -13.5t-13.5 -5.5h-140q-4 -1 -6 -1q-8 0 -14 5.5t-6 13.5v414q0 8 6 14t14 6t13.5 -6t5.5 -14v-393h127zM292 834q8 0 13.5 -5.5t5.5 -13.5t-5.5 -14t-13.5 -6h-193v-778q0 -9 -5.5 -14.5t-13.5 -5.5t-13.5 5.5t-5.5 14.5v796q0 9 8 15q6 6 14 6h209z" />
    <glyph glyph-name="E" unicode="E" horiz-adv-x="699" 
d="M80 850q8 0 13.5 -6t5.5 -14v-809q0 -8 -5.5 -14t-13.5 -6t-13.5 6t-5.5 14v809q0 8 5.5 14t13.5 6zM135 811q-8 0 -13.5 6t-5.5 14t5.5 13.5t13.5 5.5h484q8 0 13.5 -5.5t5.5 -13.5t-5.5 -14t-13.5 -6h-484zM619 272h-442v-145h442q8 0 13.5 -5.5t5.5 -13.5v-88
q0 -8 -5.5 -13.5t-13.5 -5.5h-484q-8 0 -13.5 5.5t-5.5 13.5t5.5 14t13.5 6h465v48h-436l-2 1h-1l-1 -0.5t-2 -0.5q-8 0 -13.5 6t-5.5 14v178v1.5v1v1.5v1q0 8 5.5 14t13.5 6h461q8 0 13.5 -6t5.5 -14t-5.5 -13.5t-13.5 -5.5z" />
    <glyph glyph-name="E" unicode="&#xcb;" horiz-adv-x="699" 
d="M80 850q8 0 13.5 -6t5.5 -14v-809q0 -8 -5.5 -14t-13.5 -6t-13.5 6t-5.5 14v809q0 8 5.5 14t13.5 6zM135 811q-8 0 -13.5 6t-5.5 14t5.5 13.5t13.5 5.5h484q8 0 13.5 -5.5t5.5 -13.5t-5.5 -14t-13.5 -6h-484zM619 272h-442v-145h442q8 0 13.5 -5.5t5.5 -13.5v-88
q0 -8 -5.5 -13.5t-13.5 -5.5h-484q-8 0 -13.5 5.5t-5.5 13.5t5.5 14t13.5 6h465v48h-436l-2 1h-1l-1 -0.5t-2 -0.5q-8 0 -13.5 6t-5.5 14v178v1.5v1v1.5v1q0 8 5.5 14t13.5 6h461q8 0 13.5 -6t5.5 -14t-5.5 -13.5t-13.5 -5.5z" />
    <glyph glyph-name="E" unicode="&#xca;" horiz-adv-x="699" 
d="M80 850q8 0 13.5 -6t5.5 -14v-809q0 -8 -5.5 -14t-13.5 -6t-13.5 6t-5.5 14v809q0 8 5.5 14t13.5 6zM135 811q-8 0 -13.5 6t-5.5 14t5.5 13.5t13.5 5.5h484q8 0 13.5 -5.5t5.5 -13.5t-5.5 -14t-13.5 -6h-484zM619 272h-442v-145h442q8 0 13.5 -5.5t5.5 -13.5v-88
q0 -8 -5.5 -13.5t-13.5 -5.5h-484q-8 0 -13.5 5.5t-5.5 13.5t5.5 14t13.5 6h465v48h-436l-2 1h-1l-1 -0.5t-2 -0.5q-8 0 -13.5 6t-5.5 14v178v1.5v1v1.5v1q0 8 5.5 14t13.5 6h461q8 0 13.5 -6t5.5 -14t-5.5 -13.5t-13.5 -5.5z" />
    <glyph glyph-name="E" unicode="&#xc9;" horiz-adv-x="699" 
d="M80 850q8 0 13.5 -6t5.5 -14v-809q0 -8 -5.5 -14t-13.5 -6t-13.5 6t-5.5 14v809q0 8 5.5 14t13.5 6zM135 811q-8 0 -13.5 6t-5.5 14t5.5 13.5t13.5 5.5h484q8 0 13.5 -5.5t5.5 -13.5t-5.5 -14t-13.5 -6h-484zM619 272h-442v-145h442q8 0 13.5 -5.5t5.5 -13.5v-88
q0 -8 -5.5 -13.5t-13.5 -5.5h-484q-8 0 -13.5 5.5t-5.5 13.5t5.5 14t13.5 6h465v48h-436l-2 1h-1l-1 -0.5t-2 -0.5q-8 0 -13.5 6t-5.5 14v178v1.5v1v1.5v1q0 8 5.5 14t13.5 6h461q8 0 13.5 -6t5.5 -14t-5.5 -13.5t-13.5 -5.5z" />
    <glyph glyph-name="E" unicode="&#xc8;" horiz-adv-x="699" 
d="M80 850q8 0 13.5 -6t5.5 -14v-809q0 -8 -5.5 -14t-13.5 -6t-13.5 6t-5.5 14v809q0 8 5.5 14t13.5 6zM135 811q-8 0 -13.5 6t-5.5 14t5.5 13.5t13.5 5.5h484q8 0 13.5 -5.5t5.5 -13.5t-5.5 -14t-13.5 -6h-484zM619 272h-442v-145h442q8 0 13.5 -5.5t5.5 -13.5v-88
q0 -8 -5.5 -13.5t-13.5 -5.5h-484q-8 0 -13.5 5.5t-5.5 13.5t5.5 14t13.5 6h465v48h-436l-2 1h-1l-1 -0.5t-2 -0.5q-8 0 -13.5 6t-5.5 14v178v1.5v1v1.5v1q0 8 5.5 14t13.5 6h461q8 0 13.5 -6t5.5 -14t-5.5 -13.5t-13.5 -5.5z" />
    <glyph glyph-name="F" unicode="F" horiz-adv-x="694" 
d="M138 811q-6 0 -10 3t-6.5 7t-2.5 10q0 8 5.5 13.5t13.5 5.5h476q5 0 9.5 -2.5t7 -7t2.5 -9.5q0 -8 -5.5 -14t-13.5 -6h-476zM614 396q8 0 13.5 -5.5t5.5 -13.5v-73q0 -3 -1 -6q1 -4 1 -7q0 -8 -5.5 -13.5t-13.5 -5.5h-442v-245l-0.5 -1.5l-0.5 -1.5q0 -1 1 -1v-3
q0 -8 -5.5 -13.5t-13.5 -5.5h-73q-8 0 -13.5 5.5t-5.5 13.5v1v809q0 8 5.5 14t13.5 6t13.5 -6t5.5 -14v-790h34v246q0 1 0.5 1.5t0.5 1.5l-1 1v1q0 8 6 14t14 6h441v46h-441q-8 0 -14 6t-6 14t6 13.5t14 5.5h461z" />
    <glyph glyph-name="G" unicode="G" horiz-adv-x="724" 
d="M700 294q7 -2 11.5 -8.5t2.5 -14.5q-27 -123 -111.5 -192t-205.5 -69q-8 0 -13.5 5.5t-5.5 13.5t5.5 13.5t13.5 5.5q102 0 172.5 54.5t99.5 153.5h-226v-33h155q8 0 13.5 -6t5.5 -14t-5.5 -13.5t-13.5 -5.5h-174q-8 0 -13.5 5.5t-5.5 13.5v4v4v64q0 8 5.5 13.5t13.5 5.5
h270h6zM347 793q-80 0 -148 -50t-107.5 -135.5t-39.5 -186.5t39.5 -187t107.5 -136t148 -50q8 0 13.5 -5.5t5.5 -13.5t-5.5 -13.5t-13.5 -5.5q-91 0 -167.5 55t-121.5 149.5t-45 206t45 206.5t121.5 150t167.5 55q8 0 13.5 -5.5t5.5 -13.5t-5.5 -14t-13.5 -6zM397 793
q-8 0 -13.5 6t-5.5 14t5.5 13.5t13.5 5.5q98 0 180.5 -65t122.5 -175q2 -3 1.5 -7t-2 -7.5t-4 -6t-6.5 -3.5q-3 -2 -7 -2q-13 0 -18 13q-36 98 -108.5 156t-158.5 58z" />
    <glyph glyph-name="H" unicode="H" horiz-adv-x="739" 
d="M659 850q8 0 13.5 -6t5.5 -14v-809q0 -8 -5.5 -14t-13.5 -6q-4 0 -8 2q-3 -2 -7 -2h-52q-8 0 -13.5 6t-5.5 14v234h-399v-234q0 -8 -5.5 -14t-13.5 -6h-75q-8 0 -13.5 6t-5.5 14v809q0 2 1 6q-1 3 -1 5q0 8 5.5 13.5t13.5 5.5h75q8 0 13.5 -5.5t5.5 -13.5q0 -2 -1 -6
q1 -3 1 -5v-412h418q8 0 14 -6t6 -14t-6 -13.5t-14 -5.5h-437q-8 0 -13.5 5.5t-5.5 13.5v423h-36v-781h36v235q0 8 5.5 13.5t13.5 5.5h437q8 0 14 -5.5t6 -13.5v-235h28v790q0 8 5.5 14t13.5 6z" />
    <glyph glyph-name="I" unicode="I" horiz-adv-x="235" 
d="M174 31q0 -8 -5.5 -13.5t-13.5 -5.5h-64q-2 0 -5 1q-4 -1 -6 -1q-8 0 -13.5 5.5t-5.5 13.5v799q0 8 5.5 14t13.5 6t13.5 -6t5.5 -14v-779h36v705q0 8 6 13.5t14 5.5t13.5 -5.5t5.5 -13.5v-725z" />
    <glyph glyph-name="I" unicode="&#xcf;" horiz-adv-x="235" 
d="M174 31q0 -8 -5.5 -13.5t-13.5 -5.5h-64q-2 0 -5 1q-4 -1 -6 -1q-8 0 -13.5 5.5t-5.5 13.5v799q0 8 5.5 14t13.5 6t13.5 -6t5.5 -14v-779h36v705q0 8 6 13.5t14 5.5t13.5 -5.5t5.5 -13.5v-725z" />
    <glyph glyph-name="I" unicode="&#xce;" horiz-adv-x="235" 
d="M174 31q0 -8 -5.5 -13.5t-13.5 -5.5h-64q-2 0 -5 1q-4 -1 -6 -1q-8 0 -13.5 5.5t-5.5 13.5v799q0 8 5.5 14t13.5 6t13.5 -6t5.5 -14v-779h36v705q0 8 6 13.5t14 5.5t13.5 -5.5t5.5 -13.5v-725z" />
    <glyph glyph-name="I" unicode="&#xcd;" horiz-adv-x="235" 
d="M174 31q0 -8 -5.5 -13.5t-13.5 -5.5h-64q-2 0 -5 1q-4 -1 -6 -1q-8 0 -13.5 5.5t-5.5 13.5v799q0 8 5.5 14t13.5 6t13.5 -6t5.5 -14v-779h36v705q0 8 6 13.5t14 5.5t13.5 -5.5t5.5 -13.5v-725z" />
    <glyph glyph-name="I" unicode="&#xcc;" horiz-adv-x="235" 
d="M174 31q0 -8 -5.5 -13.5t-13.5 -5.5h-64q-2 0 -5 1q-4 -1 -6 -1q-8 0 -13.5 5.5t-5.5 13.5v799q0 8 5.5 14t13.5 6t13.5 -6t5.5 -14v-779h36v705q0 8 6 13.5t14 5.5t13.5 -5.5t5.5 -13.5v-725z" />
    <glyph glyph-name="J" unicode="J" horiz-adv-x="531" 
d="M450 268q-8 0 -13.5 5.5t-5.5 13.5v543q0 8 5.5 14t13.5 6t13.5 -6t5.5 -14v-543q0 -8 -5.5 -13.5t-13.5 -5.5zM451 246q8 0 13.5 -6t5.5 -14q-1 -66 -30.5 -116.5t-82.5 -76.5q-46 -23 -100 -23q-71 0 -124 39q-42 30 -60 76.5t-10 103.5l1 1q0 26 22 40q29 21 58 7
q21 -10 23 -34q0 -4 -2 -9q-7 -50 30 -77q23 -17 54.5 -19t59.5 11q51 26 52 89q1 9 6.5 15t13.5 4q8 0 13.5 -6t5.5 -14q0 -27 -9 -50.5t-25.5 -42t-39.5 -29.5q-31 -16 -68 -16q-50 0 -86 27q-56 41 -45 115v0v1q-8 4 -19 -3q-7 -5 -6 -11v-1v-1.5v-1v-0.5
q-14 -95 54 -144q37 -27 88.5 -30.5t95 18t67.5 63t25 96.5q0 8 5.5 13.5t13.5 5.5z" />
    <glyph glyph-name="K" unicode="K" horiz-adv-x="672" 
d="M608 36q4 -7 2.5 -14.5t-7.5 -12.5q-5 -3 -11 -3q-10 0 -16 8l-324 460l-70 -67v-386q0 -9 -7 -15q-4 -8 -10.5 -15t-15.5 -11q-13 -7 -29 -7q-22 0 -38 12q-14 10 -19 27q-2 4 -2 9v809q0 8 5.5 14t13.5 6t13.5 -6t5.5 -14v-793q1 -4 1 -7q-2 -9 5 -14q12 -9 27 -1
q11 5 11 19v381h1q0 8 5 14l422 407q6 5 14 5t13.5 -6t5.5 -14t-6 -13l-318 -307l1 -0.5t1 -1.5z" />
    <glyph glyph-name="L" unicode="L" horiz-adv-x="612" 
d="M532 120q5 0 9.5 -3t7 -7.5t2.5 -9.5v-79q0 -8 -5.5 -13.5t-13.5 -5.5h-450h-0.5h-1.5q-8 0 -13.5 5.5t-5.5 13.5v809q0 8 5.5 14t13.5 6t13.5 -6t5.5 -14v-789h413v40h-354q-8 0 -14 5.5t-6 13.5t6 14t14 6h374z" />
    <glyph glyph-name="M" unicode="M" horiz-adv-x="914" 
d="M834 850q8 0 13.5 -6t5.5 -14v-809q0 -8 -5.5 -13.5t-13.5 -5.5q-1 0 -5 1q-4 -1 -5 -1h-71q-1 0 -5 1q-4 -1 -5 -1q-8 0 -13.5 5.5t-5.5 13.5v729l-293 -735q-5 -12 -18 -12h-1.5h-1h-1.5h-1q-13 0 -18 12l-291 716v-710q0 -8 -5.5 -14t-13.5 -6t-13.5 6t-5.5 14v809
q0 2 1 5q4 15 18 15q13 0 18 -12l312 -770l307 769q6 15 22 12q3 1 4 1q8 0 14 -6t6 -14v-790h52v790q0 8 5.5 14t13.5 6z" />
    <glyph glyph-name="N" unicode="N" horiz-adv-x="793" 
d="M713 850q5 0 9.5 -3t7 -7.5t2.5 -9.5v-808q0 -8 -5.5 -13.5t-13.5 -5.5t-13.5 5.5t-5.5 13.5v789h-60v-789v-1v-1q0 -10 -8 -16q-5 -3 -11 -3q-11 0 -16 9l-500 757v-749q0 -8 -5.5 -14t-13.5 -6t-13.5 6t-5.5 14v809q0 8 5.5 14t13.5 6l0.5 -0.5t1.5 -0.5q11 1 17 -8
l497 -753v745q0 8 5.5 14t13.5 6q3 0 6 -2q4 2 7 2h85z" />
    <glyph glyph-name="N" unicode="&#xd1;" horiz-adv-x="793" 
d="M713 850q5 0 9.5 -3t7 -7.5t2.5 -9.5v-808q0 -8 -5.5 -13.5t-13.5 -5.5t-13.5 5.5t-5.5 13.5v789h-60v-789v-1v-1q0 -10 -8 -16q-5 -3 -11 -3q-11 0 -16 9l-500 757v-749q0 -8 -5.5 -14t-13.5 -6t-13.5 6t-5.5 14v809q0 8 5.5 14t13.5 6l0.5 -0.5t1.5 -0.5q11 1 17 -8
l497 -753v745q0 8 5.5 14t13.5 6q3 0 6 -2q4 2 7 2h85z" />
    <glyph glyph-name="O" unicode="O" horiz-adv-x="933" 
d="M437 729q-103 0 -175.5 -89.5t-72.5 -215.5t73 -215t175 -89q8 0 13.5 -6t5.5 -14t-5.5 -13.5t-13.5 -5.5q-78 0 -144 46t-104.5 125t-38.5 172q0 138 80 237.5t195 105.5l1.5 0.5l1.5 0.5q2 0 4 2t4 7t2 12q0 8 -3 13.5t-6 6.5q-90 -3 -165.5 -55.5t-120 -141
t-44.5 -192.5q0 -106 45.5 -195.5t123.5 -141.5t169 -52q8 0 13.5 -6t5.5 -14t-5.5 -13.5t-13.5 -5.5q-76 0 -146 34t-120.5 91.5t-80 136.5t-29.5 166q0 114 48.5 211t132.5 154.5t183 61.5q3 1 3.5 1t1 -0.5l0.5 -0.5q1 0 3.5 0.5t3.5 0.5q11 0 16 -10q24 -17 24 -49.5
t-24 -49.5q-5 -10 -16 -10zM509 848q101 0 184 -56.5t131 -155t48 -216.5q0 -116 -50 -214.5t-137 -156t-189 -57.5q-8 0 -13.5 5.5t-5.5 13.5t5.5 14t13.5 6q69 0 131.5 30.5t107.5 83t72 124.5t27 151q0 107 -43 196.5t-117.5 141t-164.5 51.5q-8 0 -13.5 5.5t-5.5 13.5
t5.5 14t13.5 6z" />
    <glyph glyph-name="O" unicode="&#xd8;" horiz-adv-x="933" 
d="M437 729q-103 0 -175.5 -89.5t-72.5 -215.5t73 -215t175 -89q8 0 13.5 -6t5.5 -14t-5.5 -13.5t-13.5 -5.5q-78 0 -144 46t-104.5 125t-38.5 172q0 138 80 237.5t195 105.5l1.5 0.5l1.5 0.5q2 0 4 2t4 7t2 12q0 8 -3 13.5t-6 6.5q-90 -3 -165.5 -55.5t-120 -141
t-44.5 -192.5q0 -106 45.5 -195.5t123.5 -141.5t169 -52q8 0 13.5 -6t5.5 -14t-5.5 -13.5t-13.5 -5.5q-76 0 -146 34t-120.5 91.5t-80 136.5t-29.5 166q0 114 48.5 211t132.5 154.5t183 61.5q3 1 3.5 1t1 -0.5l0.5 -0.5q1 0 3.5 0.5t3.5 0.5q11 0 16 -10q24 -17 24 -49.5
t-24 -49.5q-5 -10 -16 -10zM509 848q101 0 184 -56.5t131 -155t48 -216.5q0 -116 -50 -214.5t-137 -156t-189 -57.5q-8 0 -13.5 5.5t-5.5 13.5t5.5 14t13.5 6q69 0 131.5 30.5t107.5 83t72 124.5t27 151q0 107 -43 196.5t-117.5 141t-164.5 51.5q-8 0 -13.5 5.5t-5.5 13.5
t5.5 14t13.5 6z" />
    <glyph glyph-name="O" unicode="&#xd6;" horiz-adv-x="933" 
d="M437 729q-103 0 -175.5 -89.5t-72.5 -215.5t73 -215t175 -89q8 0 13.5 -6t5.5 -14t-5.5 -13.5t-13.5 -5.5q-78 0 -144 46t-104.5 125t-38.5 172q0 138 80 237.5t195 105.5l1.5 0.5l1.5 0.5q2 0 4 2t4 7t2 12q0 8 -3 13.5t-6 6.5q-90 -3 -165.5 -55.5t-120 -141
t-44.5 -192.5q0 -106 45.5 -195.5t123.5 -141.5t169 -52q8 0 13.5 -6t5.5 -14t-5.5 -13.5t-13.5 -5.5q-76 0 -146 34t-120.5 91.5t-80 136.5t-29.5 166q0 114 48.5 211t132.5 154.5t183 61.5q3 1 3.5 1t1 -0.5l0.5 -0.5q1 0 3.5 0.5t3.5 0.5q11 0 16 -10q24 -17 24 -49.5
t-24 -49.5q-5 -10 -16 -10zM509 848q101 0 184 -56.5t131 -155t48 -216.5q0 -116 -50 -214.5t-137 -156t-189 -57.5q-8 0 -13.5 5.5t-5.5 13.5t5.5 14t13.5 6q69 0 131.5 30.5t107.5 83t72 124.5t27 151q0 107 -43 196.5t-117.5 141t-164.5 51.5q-8 0 -13.5 5.5t-5.5 13.5
t5.5 14t13.5 6z" />
    <glyph glyph-name="O" unicode="&#xd5;" horiz-adv-x="933" 
d="M437 729q-103 0 -175.5 -89.5t-72.5 -215.5t73 -215t175 -89q8 0 13.5 -6t5.5 -14t-5.5 -13.5t-13.5 -5.5q-78 0 -144 46t-104.5 125t-38.5 172q0 138 80 237.5t195 105.5l1.5 0.5l1.5 0.5q2 0 4 2t4 7t2 12q0 8 -3 13.5t-6 6.5q-90 -3 -165.5 -55.5t-120 -141
t-44.5 -192.5q0 -106 45.5 -195.5t123.5 -141.5t169 -52q8 0 13.5 -6t5.5 -14t-5.5 -13.5t-13.5 -5.5q-76 0 -146 34t-120.5 91.5t-80 136.5t-29.5 166q0 114 48.5 211t132.5 154.5t183 61.5q3 1 3.5 1t1 -0.5l0.5 -0.5q1 0 3.5 0.5t3.5 0.5q11 0 16 -10q24 -17 24 -49.5
t-24 -49.5q-5 -10 -16 -10zM509 848q101 0 184 -56.5t131 -155t48 -216.5q0 -116 -50 -214.5t-137 -156t-189 -57.5q-8 0 -13.5 5.5t-5.5 13.5t5.5 14t13.5 6q69 0 131.5 30.5t107.5 83t72 124.5t27 151q0 107 -43 196.5t-117.5 141t-164.5 51.5q-8 0 -13.5 5.5t-5.5 13.5
t5.5 14t13.5 6z" />
    <glyph glyph-name="O" unicode="&#xd4;" horiz-adv-x="933" 
d="M437 729q-103 0 -175.5 -89.5t-72.5 -215.5t73 -215t175 -89q8 0 13.5 -6t5.5 -14t-5.5 -13.5t-13.5 -5.5q-78 0 -144 46t-104.5 125t-38.5 172q0 138 80 237.5t195 105.5l1.5 0.5l1.5 0.5q2 0 4 2t4 7t2 12q0 8 -3 13.5t-6 6.5q-90 -3 -165.5 -55.5t-120 -141
t-44.5 -192.5q0 -106 45.5 -195.5t123.5 -141.5t169 -52q8 0 13.5 -6t5.5 -14t-5.5 -13.5t-13.5 -5.5q-76 0 -146 34t-120.5 91.5t-80 136.5t-29.5 166q0 114 48.5 211t132.5 154.5t183 61.5q3 1 3.5 1t1 -0.5l0.5 -0.5q1 0 3.5 0.5t3.5 0.5q11 0 16 -10q24 -17 24 -49.5
t-24 -49.5q-5 -10 -16 -10zM509 848q101 0 184 -56.5t131 -155t48 -216.5q0 -116 -50 -214.5t-137 -156t-189 -57.5q-8 0 -13.5 5.5t-5.5 13.5t5.5 14t13.5 6q69 0 131.5 30.5t107.5 83t72 124.5t27 151q0 107 -43 196.5t-117.5 141t-164.5 51.5q-8 0 -13.5 5.5t-5.5 13.5
t5.5 14t13.5 6z" />
    <glyph glyph-name="O" unicode="&#xd3;" horiz-adv-x="933" 
d="M437 729q-103 0 -175.5 -89.5t-72.5 -215.5t73 -215t175 -89q8 0 13.5 -6t5.5 -14t-5.5 -13.5t-13.5 -5.5q-78 0 -144 46t-104.5 125t-38.5 172q0 138 80 237.5t195 105.5l1.5 0.5l1.5 0.5q2 0 4 2t4 7t2 12q0 8 -3 13.5t-6 6.5q-90 -3 -165.5 -55.5t-120 -141
t-44.5 -192.5q0 -106 45.5 -195.5t123.5 -141.5t169 -52q8 0 13.5 -6t5.5 -14t-5.5 -13.5t-13.5 -5.5q-76 0 -146 34t-120.5 91.5t-80 136.5t-29.5 166q0 114 48.5 211t132.5 154.5t183 61.5q3 1 3.5 1t1 -0.5l0.5 -0.5q1 0 3.5 0.5t3.5 0.5q11 0 16 -10q24 -17 24 -49.5
t-24 -49.5q-5 -10 -16 -10zM509 848q101 0 184 -56.5t131 -155t48 -216.5q0 -116 -50 -214.5t-137 -156t-189 -57.5q-8 0 -13.5 5.5t-5.5 13.5t5.5 14t13.5 6q69 0 131.5 30.5t107.5 83t72 124.5t27 151q0 107 -43 196.5t-117.5 141t-164.5 51.5q-8 0 -13.5 5.5t-5.5 13.5
t5.5 14t13.5 6z" />
    <glyph glyph-name="O" unicode="&#xd2;" horiz-adv-x="933" 
d="M437 729q-103 0 -175.5 -89.5t-72.5 -215.5t73 -215t175 -89q8 0 13.5 -6t5.5 -14t-5.5 -13.5t-13.5 -5.5q-78 0 -144 46t-104.5 125t-38.5 172q0 138 80 237.5t195 105.5l1.5 0.5l1.5 0.5q2 0 4 2t4 7t2 12q0 8 -3 13.5t-6 6.5q-90 -3 -165.5 -55.5t-120 -141
t-44.5 -192.5q0 -106 45.5 -195.5t123.5 -141.5t169 -52q8 0 13.5 -6t5.5 -14t-5.5 -13.5t-13.5 -5.5q-76 0 -146 34t-120.5 91.5t-80 136.5t-29.5 166q0 114 48.5 211t132.5 154.5t183 61.5q3 1 3.5 1t1 -0.5l0.5 -0.5q1 0 3.5 0.5t3.5 0.5q11 0 16 -10q24 -17 24 -49.5
t-24 -49.5q-5 -10 -16 -10zM509 848q101 0 184 -56.5t131 -155t48 -216.5q0 -116 -50 -214.5t-137 -156t-189 -57.5q-8 0 -13.5 5.5t-5.5 13.5t5.5 14t13.5 6q69 0 131.5 30.5t107.5 83t72 124.5t27 151q0 107 -43 196.5t-117.5 141t-164.5 51.5q-8 0 -13.5 5.5t-5.5 13.5
t5.5 14t13.5 6z" />
    <glyph glyph-name="P" unicode="P" horiz-adv-x="699" 
d="M80 849q8 0 13.5 -6t5.5 -14v-808q0 -8 -5.5 -13.5t-13.5 -5.5t-13.5 5.5t-5.5 13.5v808q0 8 5.5 14t13.5 6zM619 554q8 0 13.5 -6t5.5 -14q-2 -95 -80 -161q-95 -80 -268 -80q-56 0 -118 9q-8 2 -13 8q-25 17 -25 52q0 20 9.5 35.5t25.5 20.5q1 1 2 1q9 2 11 2
q6 0 11 -3q170 -23 278 25q7 3 14.5 0.5t11 -10t0.5 -15t-11 -10.5q-81 -36 -195 -36q-53 0 -113 8q-6 -7 -6 -18q0 -9 3.5 -15t6.5 -6q4 0 7 -2q75 -10 139 -6t116 21.5t89 48.5q65 54 67 132q0 18 19 19zM530 735q-64 56 -166.5 76.5t-225.5 2.5q-8 -2 -14.5 3t-7.5 13
t3.5 14.5t12.5 7.5q58 9 111 9.5t94 -6t76 -16t62.5 -23.5t46 -26t33.5 -26q86 -76 83 -175q0 -5 -2.5 -9.5t-7 -7t-9.5 -2.5h-1q-8 0 -13.5 6t-4.5 14q2 81 -70 145z" />
    <glyph glyph-name="Q" unicode="Q" horiz-adv-x="932" 
d="M634 45q4 -4 5 -8q3 -8 -1 -15t-12 -9q-90 -26 -170 -26q-136 0 -232 73q-77 57 -120 152.5t-43 207.5q0 116 50.5 214.5t137 156t188.5 57.5q8 0 13.5 -5.5t5.5 -14t-5.5 -14t-13.5 -5.5q-91 0 -169 -52t-123.5 -141.5t-45.5 -195.5q0 -90 36.5 -181.5t111.5 -147.5
q133 -100 346 -46l-17 39q-67 -17 -121 -17q-109 0 -186 58q-65 48 -101 128.5t-36 174.5q0 8 5.5 14t13.5 6t14 -6t6 -14q0 -75 29.5 -150.5t91.5 -121.5q111 -83 290 -30q6 1 10.5 0t8.5 -5t5 -9l1 -1l27 -64v-1v-1zM863 -5q7 -5 8 -12.5t-4 -14.5q-6 -7 -15 -7
q-7 0 -12 4l-135 103q-21 -16 -24 -18q-5 -3 -10 -3q-11 0 -16 8q-5 7 -3.5 15t8.5 12q52 35 90.5 87.5t59 117t20.5 133.5q0 106 -45.5 195.5t-123 141.5t-169.5 52q-8 0 -13.5 5.5t-5.5 14t5.5 14t13.5 5.5q102 0 189 -57.5t137.5 -156t50.5 -214.5q0 -94 -35.5 -179.5
t-98.5 -146.5z" />
    <glyph glyph-name="R" unicode="R" horiz-adv-x="726" 
d="M429 306l151 -291q3 -7 1 -15t-10 -11q-4 -2 -8 -2q-12 0 -18 10l-150 291q-4 7 -1.5 14.5t10 11.5t15 1.5t10.5 -9.5zM80 849q8 0 13.5 -6t5.5 -14v-808q0 -8 -5.5 -13.5t-13.5 -5.5t-13.5 5.5t-5.5 13.5v808q0 8 5.5 14t13.5 6zM154 720q8 0 14 -5.5t6 -13.5v-680
q0 -8 -6 -13.5t-14 -5.5t-13.5 5.5t-5.5 13.5v680q0 8 5.5 13.5t13.5 5.5zM663 25q4 -7 1.5 -15t-9.5 -11q-4 -3 -9 -3q-11 0 -17 11l-167 313q-4 7 -1.5 14.5t9.5 11.5q2 1 6 2q2 3 4 4q50 35 77 82.5t29 100.5q0 8 5.5 13.5t13.5 5.5h1q8 0 13.5 -6t4.5 -14
q-1 -62 -32 -116.5t-88 -95.5zM586 590q2 84 -72 148q-16 15 -36.5 27.5t-54.5 27t-73.5 21t-94.5 9t-117 -8.5q-8 -2 -14.5 3t-7.5 13t3.5 14.5t12.5 7.5q48 7 92.5 8.5t80 -1.5t68 -10.5t57 -17t46.5 -21t36.5 -21.5t27.5 -22q87 -76 84 -178q0 -8 -5.5 -13.5t-13.5 -5.5
q-9 0 -14.5 6t-4.5 14z" />
    <glyph glyph-name="S" unicode="S" horiz-adv-x="747" 
d="M82 577q-8 0 -13.5 4.5t-6.5 12.5q-6 57 13.5 108.5t57.5 87.5t86.5 60.5t102.5 32.5q34 7 71.5 3.5t73.5 -12.5t71 -31.5t63.5 -53.5t50.5 -78t34 -105q1 -7 -3.5 -14t-12.5 -8q-3 -1 -7 0l-0.5 -0.5t-1.5 -0.5l-63 -11h-4l-1 0.5t-2 0.5h-1q-16 0 -19 16
q-19 95 -72 141.5t-144 46.5q-8 0 -13.5 5.5t-5.5 13.5q0 9 6 14.5t15 5.5q199 0 247 -203l39 6q-14 57 -40 100.5t-57.5 68.5t-69.5 41.5t-75 18t-73 -2.5q-63 -10 -116.5 -42t-86 -86t-24.5 -119q1 -8 -4 -14t-13 -7h-2zM684 267q7 -57 -12.5 -108.5t-57.5 -87.5
t-86.5 -60t-102.5 -33q-26 -4 -53 -4q-51 0 -97.5 15t-90 46.5t-76 87.5t-47.5 132q-1 8 3.5 14.5t12 8t14.5 -3t8 -12.5q10 -51 29.5 -93t45 -69t56 -47t62 -28.5t64.5 -11.5t63 3q63 10 116.5 42t85.5 86.5t25 118.5q-1 8 4 14t13 7t14 -4t7 -13zM363 451q41 -4 61.5 -7
t57 -9t56.5 -12t47 -17t42.5 -24t29.5 -31.5t19 -40.5q2 -8 -2 -15t-12 -9h-4q-15 0 -19 14q-4 18 -16 32t-25.5 24t-38 18.5t-42.5 13.5t-51 10.5t-52 8t-55 6.5q-30 3 -45 5t-42.5 6t-43 7.5t-38.5 9.5t-36.5 12.5t-30 15.5t-26 19.5t-17.5 24.5t-11 30q-1 5 0.5 10
t5.5 8.5t9 4.5q8 2 14.5 -2.5t8.5 -12.5q3 -15 13 -27.5t22.5 -21t34.5 -16.5t39 -12t47.5 -9t48 -7.5t51.5 -6.5z" />
    <glyph glyph-name="T" unicode="T" horiz-adv-x="789" 
d="M709 850q5 0 9.5 -2.5t7 -7t2.5 -9.5q0 -8 -5.5 -14t-13.5 -6h-610v-60h299q8 0 13.5 -5.5t5.5 -13.5v-711q0 -8 -5.5 -13.5t-14 -5.5t-14 5.5t-5.5 13.5v692h-298q-8 0 -13.5 5.5t-5.5 13.5v99q0 8 5.5 13.5t13.5 5.5h629zM471 379q8 0 13.5 -5.5t5.5 -13.5v-339
q0 -8 -5.5 -13.5t-13.5 -5.5t-13.5 5.5t-5.5 13.5v339q0 8 5.5 13.5t13.5 5.5z" />
    <glyph glyph-name="U" unicode="U" horiz-adv-x="675" 
d="M595 850q8 0 14 -5.5t6 -13.5v-507q0 -8 -6 -13.5t-14 -5.5t-13.5 5.5t-5.5 13.5v507q0 8 5.5 13.5t13.5 5.5zM81 305q-8 0 -13.5 5.5t-5.5 13.5v507q0 8 5.5 13.5t13.5 5.5h54h1.5h1h1h1.5q8 0 13.5 -5.5t5.5 -13.5v-344q0 -8 -5.5 -13.5t-13.5 -5.5t-14 5.5t-6 13.5
v325h-19v-488q0 -8 -6 -13.5t-14 -5.5zM595 303q8 0 13.5 -5.5t5.5 -13.5q0 -119 -81 -203.5t-195.5 -84.5t-195.5 84.5t-81 203.5q0 8 5.5 13.5t13.5 5.5t13.5 -5.5t5.5 -13.5q0 -68 32 -125t87 -90.5t119 -33.5q99 0 169 73t70 176q0 8 5.5 13.5t13.5 5.5z" />
    <glyph glyph-name="U" unicode="&#xdc;" horiz-adv-x="675" 
d="M595 850q8 0 14 -5.5t6 -13.5v-507q0 -8 -6 -13.5t-14 -5.5t-13.5 5.5t-5.5 13.5v507q0 8 5.5 13.5t13.5 5.5zM81 305q-8 0 -13.5 5.5t-5.5 13.5v507q0 8 5.5 13.5t13.5 5.5h54h1.5h1h1h1.5q8 0 13.5 -5.5t5.5 -13.5v-344q0 -8 -5.5 -13.5t-13.5 -5.5t-14 5.5t-6 13.5
v325h-19v-488q0 -8 -6 -13.5t-14 -5.5zM595 303q8 0 13.5 -5.5t5.5 -13.5q0 -119 -81 -203.5t-195.5 -84.5t-195.5 84.5t-81 203.5q0 8 5.5 13.5t13.5 5.5t13.5 -5.5t5.5 -13.5q0 -68 32 -125t87 -90.5t119 -33.5q99 0 169 73t70 176q0 8 5.5 13.5t13.5 5.5z" />
    <glyph glyph-name="U" unicode="&#xdb;" horiz-adv-x="675" 
d="M595 850q8 0 14 -5.5t6 -13.5v-507q0 -8 -6 -13.5t-14 -5.5t-13.5 5.5t-5.5 13.5v507q0 8 5.5 13.5t13.5 5.5zM81 305q-8 0 -13.5 5.5t-5.5 13.5v507q0 8 5.5 13.5t13.5 5.5h54h1.5h1h1h1.5q8 0 13.5 -5.5t5.5 -13.5v-344q0 -8 -5.5 -13.5t-13.5 -5.5t-14 5.5t-6 13.5
v325h-19v-488q0 -8 -6 -13.5t-14 -5.5zM595 303q8 0 13.5 -5.5t5.5 -13.5q0 -119 -81 -203.5t-195.5 -84.5t-195.5 84.5t-81 203.5q0 8 5.5 13.5t13.5 5.5t13.5 -5.5t5.5 -13.5q0 -68 32 -125t87 -90.5t119 -33.5q99 0 169 73t70 176q0 8 5.5 13.5t13.5 5.5z" />
    <glyph glyph-name="U" unicode="&#xda;" horiz-adv-x="675" 
d="M595 850q8 0 14 -5.5t6 -13.5v-507q0 -8 -6 -13.5t-14 -5.5t-13.5 5.5t-5.5 13.5v507q0 8 5.5 13.5t13.5 5.5zM81 305q-8 0 -13.5 5.5t-5.5 13.5v507q0 8 5.5 13.5t13.5 5.5h54h1.5h1h1h1.5q8 0 13.5 -5.5t5.5 -13.5v-344q0 -8 -5.5 -13.5t-13.5 -5.5t-14 5.5t-6 13.5
v325h-19v-488q0 -8 -6 -13.5t-14 -5.5zM595 303q8 0 13.5 -5.5t5.5 -13.5q0 -119 -81 -203.5t-195.5 -84.5t-195.5 84.5t-81 203.5q0 8 5.5 13.5t13.5 5.5t13.5 -5.5t5.5 -13.5q0 -68 32 -125t87 -90.5t119 -33.5q99 0 169 73t70 176q0 8 5.5 13.5t13.5 5.5z" />
    <glyph glyph-name="U" unicode="&#xd9;" horiz-adv-x="675" 
d="M595 850q8 0 14 -5.5t6 -13.5v-507q0 -8 -6 -13.5t-14 -5.5t-13.5 5.5t-5.5 13.5v507q0 8 5.5 13.5t13.5 5.5zM81 305q-8 0 -13.5 5.5t-5.5 13.5v507q0 8 5.5 13.5t13.5 5.5h54h1.5h1h1h1.5q8 0 13.5 -5.5t5.5 -13.5v-344q0 -8 -5.5 -13.5t-13.5 -5.5t-14 5.5t-6 13.5
v325h-19v-488q0 -8 -6 -13.5t-14 -5.5zM595 303q8 0 13.5 -5.5t5.5 -13.5q0 -119 -81 -203.5t-195.5 -84.5t-195.5 84.5t-81 203.5q0 8 5.5 13.5t13.5 5.5t13.5 -5.5t5.5 -13.5q0 -68 32 -125t87 -90.5t119 -33.5q99 0 169 73t70 176q0 8 5.5 13.5t13.5 5.5z" />
    <glyph glyph-name="V" unicode="V" horiz-adv-x="707" 
d="M645 831v-1v-2v-1l-1 -4l-310 -808h-1q-2 -5 -6 -8l-2 -1q0 -1 -1 -1q-1 -1 -2 -1q-3 -1 -6 -1q-4 0 -7 1l-2 1l-1 1l-2 1q-4 3 -6 8l-1 1l-284 808q-3 7 0.5 14.5t11 10t15 -1t9.5 -10.5l267 -759l282 733h-32l-90 -236q-5 -12 -18 -12q-4 0 -7 1q-8 3 -11 10.5t0 14.5
l95 248q0 1 2 4q1 0 1.5 1t0.5 2l2 1l1 1q3 2 3.5 2h1t1.5 1q3 1 5 1h72h1q1 0 2 -1h2h1l2 -1q2 -1 5 -3l0.5 -0.5l0.5 -0.5q1 0 3 -4l1 -1l1 -1v-2v-1q1 -3 1 -4z" />
    <glyph glyph-name="W" unicode="W" horiz-adv-x="1091" 
d="M1016 847q8 -2 12 -8.5t2 -14.5l-203 -806l-1 -1q-2 -6 -6 -10h-1q-3 -3 -5 -3q-3 -1 -6 -1t-5 1q-3 0 -6 2v0.5t-1 0.5q-4 3 -6 8q0 1 -0.5 1h-0.5l-242 751l-244 -745v-1q-1 -14 -15 -17q-2 -1 -5 -1q-15 0 -18 15l-204 806q-2 8 2.5 14.5t11.5 8.5q4 1 8 1h0.5h1.5h64
h2l1 -1q8 2 14.5 -2t8.5 -12l72 -287q2 -8 -2 -14.5t-12 -8.5q-2 -1 -5 -1q-15 0 -19 15l-68 272h-36l181 -716l243 742v1v1q1 1 2 3t3 3l2 1.5t4 2.5l0.5 0.5l0.5 0.5h1h1h4.5h3.5h1h1l1 -1l4 -2q2 -2 3 -2q1 -1 2 -3l2 -4q0 -1 1 -1l240 -743l187 741q1 8 8 12t15 2z" />
    <glyph glyph-name="X" unicode="X" horiz-adv-x="758" 
d="M425 423l269 -392q4 -7 2.5 -14.5t-7.5 -12.5q-5 -3 -11 -3q-10 0 -16 8l-261 380l-261 -380q-6 -8 -16 -8h-1l-2 1q-3 -1 -4 -1q-7 0 -12 5l-38 32q-7 6 -6 16q-1 8 3 15l109 154q5 6 13 7.5t14.5 -3t8 -12.5t-3.5 -15l-101 -142l14 -13l260 378l-270 392
q-4 7 -2.5 14.5t8 12t14.5 3.5t12 -8l261 -380l261 380q4 7 12 8t14.5 -3.5t8 -12t-2.5 -14.5z" />
    <glyph glyph-name="Y" unicode="Y" horiz-adv-x="743" 
d="M721.5 845q6.5 -4 8.5 -12t-3 -15l-297 -456v-343q0 -8 -6 -13.5t-14 -5.5l-1.5 0.5l-1.5 0.5l-1 -0.5t-2 -0.5h-63q-8 0 -13.5 5.5t-5.5 13.5v344l-300 451q-8 11 1 23q6 11 18 11h74q8 0 14 -7q4 -3 6 -6l222 -334q5 -7 3.5 -14.5t-8.5 -12.5q-5 -3 -11 -3q-10 0 -16 9
l-219 329h-35l285 -428q1 -1 2 -4q2 -5 2 -9v-329h31v329v1v1q0 1 1 3.5t2 3.5v0.5v1.5l301 460q4 7 12 8.5t14.5 -2.5z" />
    <glyph glyph-name="Y" unicode="&#xdd;" horiz-adv-x="743" 
d="M721.5 845q6.5 -4 8.5 -12t-3 -15l-297 -456v-343q0 -8 -6 -13.5t-14 -5.5l-1.5 0.5l-1.5 0.5l-1 -0.5t-2 -0.5h-63q-8 0 -13.5 5.5t-5.5 13.5v344l-300 451q-8 11 1 23q6 11 18 11h74q8 0 14 -7q4 -3 6 -6l222 -334q5 -7 3.5 -14.5t-8.5 -12.5q-5 -3 -11 -3q-10 0 -16 9
l-219 329h-35l285 -428q1 -1 2 -4q2 -5 2 -9v-329h31v329v1v1q0 1 1 3.5t2 3.5v0.5v1.5l301 460q4 7 12 8.5t14.5 -2.5z" />
    <glyph glyph-name="Z" unicode="Z" horiz-adv-x="780" 
d="M700 41q8 0 13.5 -6t5.5 -14t-5.5 -13.5t-13.5 -5.5h-565q-8 0 -13.5 5.5t-5.5 13.5t5.5 14t13.5 6h565zM717 825q-1 -5 -3 -8l-619 -805q-5 -8 -15 -8q-6 0 -12 4q-6 5 -7 13t4 14l596 776h-542v-50h238q8 0 14 -5.5t6 -13.5t-6 -14t-14 -6h-250l-4 1h-1q-2 -1 -3 -1
q-8 0 -13.5 6t-5.5 14v89q0 8 5.5 13.5t13.5 5.5l4 -1l1.5 0.5t2.5 0.5h592q8 0 13.5 -5.5t5.5 -13.5q0 -2 -1 -6z" />
    <glyph glyph-name="a" unicode="a" horiz-adv-x="558" 
d="M37.5 428q-7.5 2 -12 9t-2.5 14q19 79 79.5 128t138.5 49q93 0 158.5 -68.5t65.5 -164.5q0 -8 -5.5 -14t-13.5 -6t-14 6t-6 14q0 53 -24.5 97.5t-67.5 71t-93 26.5q-64 0 -114.5 -41.5t-65.5 -106.5q-2 -7 -9 -11.5t-14.5 -2.5zM546.5 58q3.5 -7 1 -14.5t-9.5 -11.5
q-18 -9 -34 -9q-18 0 -32 9q-24 17 -36.5 61.5t-13 100.5t1 91t4.5 64q1 8 7 13t14 4t13 -7t5 -14q-11 -75 -4.5 -169t31.5 -112q10 -6 26 2q8 4 15.5 1.5t11 -9.5zM83 107q4 -7 0.5 -14.5t-10.5 -10.5q-3 -2 -7 -2q-13 0 -18 12q-39 93 -8 152q10 18 28 33.5t35 25t46 18.5
t46.5 13t49.5 10q35 8 53.5 12t40.5 12.5t34 18.5q5 5 13 4.5t13.5 -6.5t5 -14t-6.5 -13q-15 -13 -40.5 -23.5t-45.5 -15.5t-59 -13q-30 -6 -46 -9.5t-41.5 -11t-40 -15t-29.5 -19t-22 -25.5q-22 -43 9 -119zM398 159q8 -2 12 -8.5t3 -14.5q-9 -42 -66 -75t-126 -44
q-26 -5 -49 -5q-69 0 -90 36q-4 7 -2 15t8.5 12t14.5 2t12 -9q7 -11 31.5 -15t68.5 2q59 10 106.5 36.5t53.5 52.5q1 5 4.5 9t8.5 5.5t10 0.5z" />
    <glyph glyph-name="a" unicode="&#xe5;" horiz-adv-x="558" 
d="M37.5 428q-7.5 2 -12 9t-2.5 14q19 79 79.5 128t138.5 49q93 0 158.5 -68.5t65.5 -164.5q0 -8 -5.5 -14t-13.5 -6t-14 6t-6 14q0 53 -24.5 97.5t-67.5 71t-93 26.5q-64 0 -114.5 -41.5t-65.5 -106.5q-2 -7 -9 -11.5t-14.5 -2.5zM546.5 58q3.5 -7 1 -14.5t-9.5 -11.5
q-18 -9 -34 -9q-18 0 -32 9q-24 17 -36.5 61.5t-13 100.5t1 91t4.5 64q1 8 7 13t14 4t13 -7t5 -14q-11 -75 -4.5 -169t31.5 -112q10 -6 26 2q8 4 15.5 1.5t11 -9.5zM83 107q4 -7 0.5 -14.5t-10.5 -10.5q-3 -2 -7 -2q-13 0 -18 12q-39 93 -8 152q10 18 28 33.5t35 25t46 18.5
t46.5 13t49.5 10q35 8 53.5 12t40.5 12.5t34 18.5q5 5 13 4.5t13.5 -6.5t5 -14t-6.5 -13q-15 -13 -40.5 -23.5t-45.5 -15.5t-59 -13q-30 -6 -46 -9.5t-41.5 -11t-40 -15t-29.5 -19t-22 -25.5q-22 -43 9 -119zM398 159q8 -2 12 -8.5t3 -14.5q-9 -42 -66 -75t-126 -44
q-26 -5 -49 -5q-69 0 -90 36q-4 7 -2 15t8.5 12t14.5 2t12 -9q7 -11 31.5 -15t68.5 2q59 10 106.5 36.5t53.5 52.5q1 5 4.5 9t8.5 5.5t10 0.5z" />
    <glyph glyph-name="a" unicode="&#xe4;" horiz-adv-x="558" 
d="M37.5 428q-7.5 2 -12 9t-2.5 14q19 79 79.5 128t138.5 49q93 0 158.5 -68.5t65.5 -164.5q0 -8 -5.5 -14t-13.5 -6t-14 6t-6 14q0 53 -24.5 97.5t-67.5 71t-93 26.5q-64 0 -114.5 -41.5t-65.5 -106.5q-2 -7 -9 -11.5t-14.5 -2.5zM546.5 58q3.5 -7 1 -14.5t-9.5 -11.5
q-18 -9 -34 -9q-18 0 -32 9q-24 17 -36.5 61.5t-13 100.5t1 91t4.5 64q1 8 7 13t14 4t13 -7t5 -14q-11 -75 -4.5 -169t31.5 -112q10 -6 26 2q8 4 15.5 1.5t11 -9.5zM83 107q4 -7 0.5 -14.5t-10.5 -10.5q-3 -2 -7 -2q-13 0 -18 12q-39 93 -8 152q10 18 28 33.5t35 25t46 18.5
t46.5 13t49.5 10q35 8 53.5 12t40.5 12.5t34 18.5q5 5 13 4.5t13.5 -6.5t5 -14t-6.5 -13q-15 -13 -40.5 -23.5t-45.5 -15.5t-59 -13q-30 -6 -46 -9.5t-41.5 -11t-40 -15t-29.5 -19t-22 -25.5q-22 -43 9 -119zM398 159q8 -2 12 -8.5t3 -14.5q-9 -42 -66 -75t-126 -44
q-26 -5 -49 -5q-69 0 -90 36q-4 7 -2 15t8.5 12t14.5 2t12 -9q7 -11 31.5 -15t68.5 2q59 10 106.5 36.5t53.5 52.5q1 5 4.5 9t8.5 5.5t10 0.5z" />
    <glyph glyph-name="a" unicode="&#xe3;" horiz-adv-x="558" 
d="M37.5 428q-7.5 2 -12 9t-2.5 14q19 79 79.5 128t138.5 49q93 0 158.5 -68.5t65.5 -164.5q0 -8 -5.5 -14t-13.5 -6t-14 6t-6 14q0 53 -24.5 97.5t-67.5 71t-93 26.5q-64 0 -114.5 -41.5t-65.5 -106.5q-2 -7 -9 -11.5t-14.5 -2.5zM546.5 58q3.5 -7 1 -14.5t-9.5 -11.5
q-18 -9 -34 -9q-18 0 -32 9q-24 17 -36.5 61.5t-13 100.5t1 91t4.5 64q1 8 7 13t14 4t13 -7t5 -14q-11 -75 -4.5 -169t31.5 -112q10 -6 26 2q8 4 15.5 1.5t11 -9.5zM83 107q4 -7 0.5 -14.5t-10.5 -10.5q-3 -2 -7 -2q-13 0 -18 12q-39 93 -8 152q10 18 28 33.5t35 25t46 18.5
t46.5 13t49.5 10q35 8 53.5 12t40.5 12.5t34 18.5q5 5 13 4.5t13.5 -6.5t5 -14t-6.5 -13q-15 -13 -40.5 -23.5t-45.5 -15.5t-59 -13q-30 -6 -46 -9.5t-41.5 -11t-40 -15t-29.5 -19t-22 -25.5q-22 -43 9 -119zM398 159q8 -2 12 -8.5t3 -14.5q-9 -42 -66 -75t-126 -44
q-26 -5 -49 -5q-69 0 -90 36q-4 7 -2 15t8.5 12t14.5 2t12 -9q7 -11 31.5 -15t68.5 2q59 10 106.5 36.5t53.5 52.5q1 5 4.5 9t8.5 5.5t10 0.5z" />
    <glyph glyph-name="a" unicode="&#xe2;" horiz-adv-x="558" 
d="M37.5 428q-7.5 2 -12 9t-2.5 14q19 79 79.5 128t138.5 49q93 0 158.5 -68.5t65.5 -164.5q0 -8 -5.5 -14t-13.5 -6t-14 6t-6 14q0 53 -24.5 97.5t-67.5 71t-93 26.5q-64 0 -114.5 -41.5t-65.5 -106.5q-2 -7 -9 -11.5t-14.5 -2.5zM546.5 58q3.5 -7 1 -14.5t-9.5 -11.5
q-18 -9 -34 -9q-18 0 -32 9q-24 17 -36.5 61.5t-13 100.5t1 91t4.5 64q1 8 7 13t14 4t13 -7t5 -14q-11 -75 -4.5 -169t31.5 -112q10 -6 26 2q8 4 15.5 1.5t11 -9.5zM83 107q4 -7 0.5 -14.5t-10.5 -10.5q-3 -2 -7 -2q-13 0 -18 12q-39 93 -8 152q10 18 28 33.5t35 25t46 18.5
t46.5 13t49.5 10q35 8 53.5 12t40.5 12.5t34 18.5q5 5 13 4.5t13.5 -6.5t5 -14t-6.5 -13q-15 -13 -40.5 -23.5t-45.5 -15.5t-59 -13q-30 -6 -46 -9.5t-41.5 -11t-40 -15t-29.5 -19t-22 -25.5q-22 -43 9 -119zM398 159q8 -2 12 -8.5t3 -14.5q-9 -42 -66 -75t-126 -44
q-26 -5 -49 -5q-69 0 -90 36q-4 7 -2 15t8.5 12t14.5 2t12 -9q7 -11 31.5 -15t68.5 2q59 10 106.5 36.5t53.5 52.5q1 5 4.5 9t8.5 5.5t10 0.5z" />
    <glyph glyph-name="a" unicode="&#xe1;" horiz-adv-x="558" 
d="M37.5 428q-7.5 2 -12 9t-2.5 14q19 79 79.5 128t138.5 49q93 0 158.5 -68.5t65.5 -164.5q0 -8 -5.5 -14t-13.5 -6t-14 6t-6 14q0 53 -24.5 97.5t-67.5 71t-93 26.5q-64 0 -114.5 -41.5t-65.5 -106.5q-2 -7 -9 -11.5t-14.5 -2.5zM546.5 58q3.5 -7 1 -14.5t-9.5 -11.5
q-18 -9 -34 -9q-18 0 -32 9q-24 17 -36.5 61.5t-13 100.5t1 91t4.5 64q1 8 7 13t14 4t13 -7t5 -14q-11 -75 -4.5 -169t31.5 -112q10 -6 26 2q8 4 15.5 1.5t11 -9.5zM83 107q4 -7 0.5 -14.5t-10.5 -10.5q-3 -2 -7 -2q-13 0 -18 12q-39 93 -8 152q10 18 28 33.5t35 25t46 18.5
t46.5 13t49.5 10q35 8 53.5 12t40.5 12.5t34 18.5q5 5 13 4.5t13.5 -6.5t5 -14t-6.5 -13q-15 -13 -40.5 -23.5t-45.5 -15.5t-59 -13q-30 -6 -46 -9.5t-41.5 -11t-40 -15t-29.5 -19t-22 -25.5q-22 -43 9 -119zM398 159q8 -2 12 -8.5t3 -14.5q-9 -42 -66 -75t-126 -44
q-26 -5 -49 -5q-69 0 -90 36q-4 7 -2 15t8.5 12t14.5 2t12 -9q7 -11 31.5 -15t68.5 2q59 10 106.5 36.5t53.5 52.5q1 5 4.5 9t8.5 5.5t10 0.5z" />
    <glyph glyph-name="a" unicode="&#xe0;" horiz-adv-x="558" 
d="M37.5 428q-7.5 2 -12 9t-2.5 14q19 79 79.5 128t138.5 49q93 0 158.5 -68.5t65.5 -164.5q0 -8 -5.5 -14t-13.5 -6t-14 6t-6 14q0 53 -24.5 97.5t-67.5 71t-93 26.5q-64 0 -114.5 -41.5t-65.5 -106.5q-2 -7 -9 -11.5t-14.5 -2.5zM546.5 58q3.5 -7 1 -14.5t-9.5 -11.5
q-18 -9 -34 -9q-18 0 -32 9q-24 17 -36.5 61.5t-13 100.5t1 91t4.5 64q1 8 7 13t14 4t13 -7t5 -14q-11 -75 -4.5 -169t31.5 -112q10 -6 26 2q8 4 15.5 1.5t11 -9.5zM83 107q4 -7 0.5 -14.5t-10.5 -10.5q-3 -2 -7 -2q-13 0 -18 12q-39 93 -8 152q10 18 28 33.5t35 25t46 18.5
t46.5 13t49.5 10q35 8 53.5 12t40.5 12.5t34 18.5q5 5 13 4.5t13.5 -6.5t5 -14t-6.5 -13q-15 -13 -40.5 -23.5t-45.5 -15.5t-59 -13q-30 -6 -46 -9.5t-41.5 -11t-40 -15t-29.5 -19t-22 -25.5q-22 -43 9 -119zM398 159q8 -2 12 -8.5t3 -14.5q-9 -42 -66 -75t-126 -44
q-26 -5 -49 -5q-69 0 -90 36q-4 7 -2 15t8.5 12t14.5 2t12 -9q7 -11 31.5 -15t68.5 2q59 10 106.5 36.5t53.5 52.5q1 5 4.5 9t8.5 5.5t10 0.5z" />
    <glyph glyph-name="b" unicode="b" horiz-adv-x="626" 
d="M80 849q8 0 13.5 -6t5.5 -14v-813q0 -8 -5.5 -13.5t-13.5 -5.5t-13.5 5.5t-5.5 13.5v813q0 8 5.5 14t13.5 6zM317 655q67 0 124 -44.5t90.5 -120.5t33.5 -165.5t-33.5 -165.5t-90.5 -120t-124 -44q-52 0 -99.5 27.5t-82.5 78.5q-5 6 -3.5 14t8 12.5t14.5 3t13 -7.5
q62 -90 150 -90q87 0 148 85.5t61 206t-61 206t-148 85.5q-43 0 -82.5 -24t-69.5 -68q-5 -6 -12.5 -7.5t-14 3t-8.5 12t3 14.5q35 52 83 80.5t101 28.5z" />
    <glyph glyph-name="c" unicode="c" horiz-adv-x="646" 
d="M319 31q8 0 13.5 -5.5t5.5 -13.5t-5.5 -14t-13.5 -6q-99 0 -172.5 87t-85.5 218q-1 5 1.5 9.5t6.5 7.5t9 3q8 2 14.5 -3.5t6.5 -13.5q11 -115 73.5 -192t146.5 -77zM570 214q8 -2 12 -9t2 -15q-22 -89 -83.5 -143.5t-138.5 -54.5q-8 0 -14 6t-6 14t6 13.5t14 5.5
q63 0 114 46.5t71 122.5q2 8 8.5 12t14.5 2zM319 660q8 0 13.5 -5.5t5.5 -13.5t-5.5 -14t-13.5 -6q-84 0 -146.5 -77t-73.5 -192q0 -7 -5.5 -12t-13.5 -5h-2q-8 1 -13 7t-4 14q12 130 85.5 217t172.5 87zM362 621q-8 0 -14 6t-6 14t6 13.5t14 5.5q71 0 128 -43.5t78 -113.5
q2 -8 -2 -15t-11 -9q-3 -1 -6 -1q-14 0 -18 14q-18 58 -64.5 93.5t-104.5 35.5z" />
    <glyph glyph-name="c" unicode="&#xe7;" horiz-adv-x="646" 
d="M319 31q8 0 13.5 -5.5t5.5 -13.5t-5.5 -14t-13.5 -6q-99 0 -172.5 87t-85.5 218q-1 5 1.5 9.5t6.5 7.5t9 3q8 2 14.5 -3.5t6.5 -13.5q11 -115 73.5 -192t146.5 -77zM570 214q8 -2 12 -9t2 -15q-22 -89 -83.5 -143.5t-138.5 -54.5q-8 0 -14 6t-6 14t6 13.5t14 5.5
q63 0 114 46.5t71 122.5q2 8 8.5 12t14.5 2zM319 660q8 0 13.5 -5.5t5.5 -13.5t-5.5 -14t-13.5 -6q-84 0 -146.5 -77t-73.5 -192q0 -7 -5.5 -12t-13.5 -5h-2q-8 1 -13 7t-4 14q12 130 85.5 217t172.5 87zM362 621q-8 0 -14 6t-6 14t6 13.5t14 5.5q71 0 128 -43.5t78 -113.5
q2 -8 -2 -15t-11 -9q-3 -1 -6 -1q-14 0 -18 14q-18 58 -64.5 93.5t-104.5 35.5z" />
    <glyph glyph-name="d" unicode="d" horiz-adv-x="626" 
d="M546 849q8 0 13.5 -6t5.5 -14v-813q0 -8 -5.5 -13.5t-13.5 -5.5t-14 5.5t-6 13.5v813q0 8 6 14t14 6zM309 616q-87 0 -148.5 -85.5t-61.5 -205.5q0 -34 5.5 -67t16 -61.5t25 -54t32.5 -45.5t38.5 -34t44 -22t48.5 -8q88 0 150 89q5 7 12.5 8.5t14 -3t8 -12.5t-2.5 -15
q-35 -50 -83 -77.5t-99 -27.5q-68 0 -125 44t-90 120t-33 165.5t33 165.5t90 120.5t125 44.5q35 0 68 -13t62.5 -37.5t53.5 -58.5q4 -7 2.5 -14.5t-8 -12t-14.5 -3t-12 7.5q-30 44 -69.5 68t-82.5 24z" />
    <glyph glyph-name="e" unicode="e" horiz-adv-x="571" 
d="M550 317v-1q1 -1 1 -2q0 -8 -6 -13.5t-14 -5.5h-456q-8 0 -13.5 5.5t-5.5 13.5t5.5 14t13.5 6h435q-6 105 -71.5 178t-156.5 73q-95 0 -162.5 -79t-67.5 -190.5t67.5 -190.5t162.5 -79q69 0 126.5 44.5t84.5 118.5q3 8 10 11.5t14.5 0.5t11 -10t1.5 -15
q-32 -86 -99.5 -137.5t-148.5 -51.5q-111 0 -189.5 90.5t-78.5 218t78.5 218t189.5 90.5t189.5 -90t78.5 -217z" />
    <glyph glyph-name="e" unicode="&#xeb;" horiz-adv-x="571" 
d="M550 317v-1q1 -1 1 -2q0 -8 -6 -13.5t-14 -5.5h-456q-8 0 -13.5 5.5t-5.5 13.5t5.5 14t13.5 6h435q-6 105 -71.5 178t-156.5 73q-95 0 -162.5 -79t-67.5 -190.5t67.5 -190.5t162.5 -79q69 0 126.5 44.5t84.5 118.5q3 8 10 11.5t14.5 0.5t11 -10t1.5 -15
q-32 -86 -99.5 -137.5t-148.5 -51.5q-111 0 -189.5 90.5t-78.5 218t78.5 218t189.5 90.5t189.5 -90t78.5 -217z" />
    <glyph glyph-name="e" unicode="&#xea;" horiz-adv-x="571" 
d="M550 317v-1q1 -1 1 -2q0 -8 -6 -13.5t-14 -5.5h-456q-8 0 -13.5 5.5t-5.5 13.5t5.5 14t13.5 6h435q-6 105 -71.5 178t-156.5 73q-95 0 -162.5 -79t-67.5 -190.5t67.5 -190.5t162.5 -79q69 0 126.5 44.5t84.5 118.5q3 8 10 11.5t14.5 0.5t11 -10t1.5 -15
q-32 -86 -99.5 -137.5t-148.5 -51.5q-111 0 -189.5 90.5t-78.5 218t78.5 218t189.5 90.5t189.5 -90t78.5 -217z" />
    <glyph glyph-name="e" unicode="&#xe9;" horiz-adv-x="571" 
d="M550 317v-1q1 -1 1 -2q0 -8 -6 -13.5t-14 -5.5h-456q-8 0 -13.5 5.5t-5.5 13.5t5.5 14t13.5 6h435q-6 105 -71.5 178t-156.5 73q-95 0 -162.5 -79t-67.5 -190.5t67.5 -190.5t162.5 -79q69 0 126.5 44.5t84.5 118.5q3 8 10 11.5t14.5 0.5t11 -10t1.5 -15
q-32 -86 -99.5 -137.5t-148.5 -51.5q-111 0 -189.5 90.5t-78.5 218t78.5 218t189.5 90.5t189.5 -90t78.5 -217z" />
    <glyph glyph-name="e" unicode="&#xe8;" horiz-adv-x="571" 
d="M550 317v-1q1 -1 1 -2q0 -8 -6 -13.5t-14 -5.5h-456q-8 0 -13.5 5.5t-5.5 13.5t5.5 14t13.5 6h435q-6 105 -71.5 178t-156.5 73q-95 0 -162.5 -79t-67.5 -190.5t67.5 -190.5t162.5 -79q69 0 126.5 44.5t84.5 118.5q3 8 10 11.5t14.5 0.5t11 -10t1.5 -15
q-32 -86 -99.5 -137.5t-148.5 -51.5q-111 0 -189.5 90.5t-78.5 218t78.5 218t189.5 90.5t189.5 -90t78.5 -217z" />
    <glyph glyph-name="f" unicode="f" horiz-adv-x="397" 
d="M317 599q5 0 9.5 -2.5t7.5 -7t3 -9.5q0 -8 -6 -13.5t-14 -5.5h-136q16 -3 16 -19v-523q0 -8 -5.5 -13.5t-13.5 -5.5t-14 5.5t-6 13.5v523q0 16 16 19h-94q-8 0 -13.5 5.5t-5.5 13.5t5.5 13.5t13.5 5.5h237zM156 623q0 6 -2 25q0 28 -1.5 56.5t8.5 59.5t31 48q42 33 120 9
q8 -2 11.5 -9t1.5 -15t-9.5 -11.5t-14.5 -1.5q-59 18 -84 -2q-15 -11 -21 -36t-5 -49t2 -47q1 -20 1 -27q0 -8 -5.5 -13.5t-13.5 -5.5t-13.5 5.5t-5.5 13.5z" />
    <glyph glyph-name="g" unicode="g" horiz-adv-x="655" 
d="M333 -41q-55 0 -105.5 27.5t-87 74.5t-58 111.5t-21.5 135.5q0 94 36.5 174.5t99 127t136.5 46.5q58 0 111 -30t91 -84q5 -7 3.5 -15t-8 -12.5t-14.5 -3t-12 7.5q-33 47 -78 72.5t-93 25.5q-96 0 -165 -90.5t-69 -219t69 -219t165 -90.5q100 0 169 95q4 6 12 7.5
t14.5 -3.5t8 -12.5t-3.5 -14.5q-38 -53 -90.5 -82t-109.5 -29zM575 642q8 0 13.5 -5.5t5.5 -13.5v-668q0 -8 -5.5 -13.5t-13.5 -5.5t-14 5.5t-6 13.5v668q0 8 6 13.5t14 5.5zM569 -95.5q5 -1.5 9 -5t5.5 -8t0.5 -9.5q-13 -58 -50.5 -98t-84.5 -57t-100 -17q-14 0 -28 1
q-86 9 -140.5 57.5t-55.5 116.5q0 8 5.5 14t13.5 6t14 -5.5t6 -13.5q1 -58 48 -94t112 -42q49 -5 94 7t81 46t47 87q1 5 4.5 8.5t8.5 5.5t10 0.5z" />
    <glyph glyph-name="h" unicode="h" horiz-adv-x="563" 
d="M80 829q8 0 13.5 -5.5t5.5 -13.5v-741q0 -8 -5.5 -13.5t-13.5 -5.5t-13.5 5.5t-5.5 13.5v741q0 8 5.5 13.5t13.5 5.5zM483 459q8 0 13.5 -6t5.5 -14v-370q0 -8 -5.5 -14t-13.5 -6t-13.5 6t-5.5 14v370q0 8 5.5 14t13.5 6zM476 470q-13 0 -18 11q-20 44 -63 69.5t-96 25.5
q-49 0 -91.5 -23.5t-63.5 -62.5q-3 -7 -11 -9.5t-15 1.5t-9 11.5t1 14.5q26 49 77.5 78t111.5 29q65 0 117.5 -32t76.5 -86q3 -7 0.5 -14.5t-10.5 -10.5q-3 -2 -7 -2z" />
    <glyph glyph-name="i" unicode="i" horiz-adv-x="160" 
d="M80 566q8 0 13.5 -5.5t5.5 -13.5v-531q0 -8 -5.5 -14t-13.5 -6t-13.5 6t-5.5 14v531q0 8 5.5 13.5t13.5 5.5zM80 798q8 0 13.5 -6t5.5 -14v-86q0 -8 -5.5 -13.5t-13.5 -5.5t-13.5 5.5t-5.5 13.5v86q0 8 5.5 14t13.5 6z" />
    <glyph glyph-name="i" unicode="&#xef;" horiz-adv-x="160" 
d="M80 566q8 0 13.5 -5.5t5.5 -13.5v-531q0 -8 -5.5 -14t-13.5 -6t-13.5 6t-5.5 14v531q0 8 5.5 13.5t13.5 5.5zM80 798q8 0 13.5 -6t5.5 -14v-86q0 -8 -5.5 -13.5t-13.5 -5.5t-13.5 5.5t-5.5 13.5v86q0 8 5.5 14t13.5 6z" />
    <glyph glyph-name="i" unicode="&#xee;" horiz-adv-x="160" 
d="M80 566q8 0 13.5 -5.5t5.5 -13.5v-531q0 -8 -5.5 -14t-13.5 -6t-13.5 6t-5.5 14v531q0 8 5.5 13.5t13.5 5.5zM80 798q8 0 13.5 -6t5.5 -14v-86q0 -8 -5.5 -13.5t-13.5 -5.5t-13.5 5.5t-5.5 13.5v86q0 8 5.5 14t13.5 6z" />
    <glyph glyph-name="i" unicode="&#xed;" horiz-adv-x="160" 
d="M80 566q8 0 13.5 -5.5t5.5 -13.5v-531q0 -8 -5.5 -14t-13.5 -6t-13.5 6t-5.5 14v531q0 8 5.5 13.5t13.5 5.5zM80 798q8 0 13.5 -6t5.5 -14v-86q0 -8 -5.5 -13.5t-13.5 -5.5t-13.5 5.5t-5.5 13.5v86q0 8 5.5 14t13.5 6z" />
    <glyph glyph-name="i" unicode="&#xec;" horiz-adv-x="160" 
d="M80 566q8 0 13.5 -5.5t5.5 -13.5v-531q0 -8 -5.5 -14t-13.5 -6t-13.5 6t-5.5 14v531q0 8 5.5 13.5t13.5 5.5zM80 798q8 0 13.5 -6t5.5 -14v-86q0 -8 -5.5 -13.5t-13.5 -5.5t-13.5 5.5t-5.5 13.5v86q0 8 5.5 14t13.5 6z" />
    <glyph glyph-name="j" unicode="j" horiz-adv-x="193" 
d="M125 410q3 -81 4.5 -140.5t2 -131t-1.5 -123.5t-8 -106.5t-15 -92t-23.5 -68t-34.5 -45.5q-20 -17 -47 -17q-17 0 -35 7q-7 3 -10.5 11t-0.5 16t10 12t15 1q27 -11 46 4q20 16 34 54.5t20.5 101t9.5 118t2 140.5t-2.5 131.5t-4.5 125.5q-5 118 -5 158q0 8 6 14.5t14 6.5
t13.5 -6.5t5.5 -14.5q0 -39 5 -156zM90 693q-8 0 -14 5.5t-6 13.5v86q0 8 6 14t14 6t13.5 -6t5.5 -14v-86q0 -8 -5.5 -13.5t-13.5 -5.5z" />
    <glyph glyph-name="k" unicode="k" horiz-adv-x="544" 
d="M80 861q8 0 13.5 -6t5.5 -14v-824q0 -8 -5.5 -13.5t-13.5 -5.5t-13.5 5.5t-5.5 13.5v824q0 8 5.5 14t13.5 6zM451 617q6 -6 6 -14t-6 -13l-306 -307q-6 -5 -14 -5t-13.5 5.5t-5.5 13.5t5 14l307 306q5 6 13 6t14 -6zM481 29q4 -6 2 -14t-9 -12q-5 -3 -10 -3q-11 0 -16 9
l-205 330q-4 7 -2 14.5t8.5 12t14.5 2.5t12 -9z" />
    <glyph glyph-name="l" unicode="l" horiz-adv-x="160" 
d="M80 861q8 0 13.5 -6t5.5 -14v-824q0 -8 -5.5 -13.5t-13.5 -5.5t-13.5 5.5t-5.5 13.5v824q0 8 5.5 14t13.5 6z" />
    <glyph glyph-name="m" unicode="m" horiz-adv-x="881" 
d="M80 637q8 0 13.5 -5.5t5.5 -13.5v-601q0 -8 -5.5 -13.5t-13.5 -5.5t-13.5 5.5t-5.5 13.5v601q0 8 5.5 13.5t13.5 5.5zM458.5 439q8.5 0 14 -6t5.5 -14v-402q0 -8 -5.5 -13.5t-14 -5.5t-14 5.5t-5.5 13.5v402q0 8 5.5 14t14 6zM801 439q8 0 13.5 -6t5.5 -14v-402
q0 -8 -5.5 -13.5t-13.5 -5.5t-13.5 5.5t-5.5 13.5v402q0 8 5.5 14t13.5 6zM457 443q-8 0 -13.5 6t-5.5 14q0 26 -12 49.5t-32 40.5t-48 27.5t-58 10.5q-36 0 -68 -14t-53.5 -39t-27.5 -55q-1 -8 -7.5 -12.5t-14.5 -3t-12.5 8t-3.5 14.5q11 60 64 99.5t123 39.5
q78 0 133.5 -48.5t55.5 -117.5q0 -8 -6 -14t-14 -6zM801 443q-8 0 -13.5 6t-5.5 14q0 53 -44 90.5t-107 37.5q-24 0 -47 -6.5t-42.5 -19t-33.5 -29.5q-5 -6 -13 -7t-14 4t-7 13t4 14q27 33 67.5 51t85.5 18q79 0 134 -48.5t55 -117.5q0 -8 -5.5 -14t-13.5 -6z" />
    <glyph glyph-name="n" unicode="n" horiz-adv-x="552" 
d="M469 439q8 0 13.5 -6t5.5 -14v-402q0 -8 -5.5 -13.5t-13.5 -5.5t-13.5 5.5t-5.5 13.5v402q0 8 5.5 14t13.5 6zM80 637q8 0 13.5 -5.5t5.5 -13.5v-601q0 -8 -5.5 -13.5t-13.5 -5.5t-13.5 5.5t-5.5 13.5v601q0 8 5.5 13.5t13.5 5.5zM471 443q-8 0 -13.5 6t-5.5 14
q0 53 -44 90.5t-106 37.5q-55 0 -97.5 -31t-51.5 -77q-1 -5 -4 -9t-8 -6t-10 -1q-8 2 -12.5 8.5t-3.5 14.5q11 60 64 99.5t123 39.5q51 0 94.5 -22t69 -60.5t25.5 -83.5q0 -8 -6 -14t-14 -6z" />
    <glyph glyph-name="n" unicode="&#xf1;" horiz-adv-x="552" 
d="M469 439q8 0 13.5 -6t5.5 -14v-402q0 -8 -5.5 -13.5t-13.5 -5.5t-13.5 5.5t-5.5 13.5v402q0 8 5.5 14t13.5 6zM80 637q8 0 13.5 -5.5t5.5 -13.5v-601q0 -8 -5.5 -13.5t-13.5 -5.5t-13.5 5.5t-5.5 13.5v601q0 8 5.5 13.5t13.5 5.5zM471 443q-8 0 -13.5 6t-5.5 14
q0 53 -44 90.5t-106 37.5q-55 0 -97.5 -31t-51.5 -77q-1 -5 -4 -9t-8 -6t-10 -1q-8 2 -12.5 8.5t-3.5 14.5q11 60 64 99.5t123 39.5q51 0 94.5 -22t69 -60.5t25.5 -83.5q0 -8 -6 -14t-14 -6z" />
    <glyph glyph-name="o" unicode="o" horiz-adv-x="691" 
d="M318 581q-90 0 -154.5 -77.5t-64.5 -186t64.5 -185.5t154.5 -77q8 0 13.5 -6t5.5 -14t-5.5 -13.5t-13.5 -5.5q-106 0 -181.5 88.5t-75.5 213t75.5 213t181.5 88.5q8 0 13.5 -5.5t5.5 -13.5t-5.5 -13.5t-13.5 -5.5zM373 619q106 0 181.5 -88.5t75.5 -213t-75.5 -213
t-181.5 -88.5q-8 0 -13.5 5.5t-5.5 13.5t5.5 14t13.5 6q59 0 109.5 35t79.5 95.5t29 132.5q0 108 -64 185.5t-154 77.5q-8 0 -13.5 5.5t-5.5 13.5t5.5 13.5t13.5 5.5z" />
    <glyph glyph-name="o" unicode="&#xf8;" horiz-adv-x="691" 
d="M318 581q-90 0 -154.5 -77.5t-64.5 -186t64.5 -185.5t154.5 -77q8 0 13.5 -6t5.5 -14t-5.5 -13.5t-13.5 -5.5q-106 0 -181.5 88.5t-75.5 213t75.5 213t181.5 88.5q8 0 13.5 -5.5t5.5 -13.5t-5.5 -13.5t-13.5 -5.5zM373 619q106 0 181.5 -88.5t75.5 -213t-75.5 -213
t-181.5 -88.5q-8 0 -13.5 5.5t-5.5 13.5t5.5 14t13.5 6q59 0 109.5 35t79.5 95.5t29 132.5q0 108 -64 185.5t-154 77.5q-8 0 -13.5 5.5t-5.5 13.5t5.5 13.5t13.5 5.5z" />
    <glyph glyph-name="o" unicode="&#xf6;" horiz-adv-x="691" 
d="M318 581q-90 0 -154.5 -77.5t-64.5 -186t64.5 -185.5t154.5 -77q8 0 13.5 -6t5.5 -14t-5.5 -13.5t-13.5 -5.5q-106 0 -181.5 88.5t-75.5 213t75.5 213t181.5 88.5q8 0 13.5 -5.5t5.5 -13.5t-5.5 -13.5t-13.5 -5.5zM373 619q106 0 181.5 -88.5t75.5 -213t-75.5 -213
t-181.5 -88.5q-8 0 -13.5 5.5t-5.5 13.5t5.5 14t13.5 6q59 0 109.5 35t79.5 95.5t29 132.5q0 108 -64 185.5t-154 77.5q-8 0 -13.5 5.5t-5.5 13.5t5.5 13.5t13.5 5.5z" />
    <glyph glyph-name="o" unicode="&#xf5;" horiz-adv-x="691" 
d="M318 581q-90 0 -154.5 -77.5t-64.5 -186t64.5 -185.5t154.5 -77q8 0 13.5 -6t5.5 -14t-5.5 -13.5t-13.5 -5.5q-106 0 -181.5 88.5t-75.5 213t75.5 213t181.5 88.5q8 0 13.5 -5.5t5.5 -13.5t-5.5 -13.5t-13.5 -5.5zM373 619q106 0 181.5 -88.5t75.5 -213t-75.5 -213
t-181.5 -88.5q-8 0 -13.5 5.5t-5.5 13.5t5.5 14t13.5 6q59 0 109.5 35t79.5 95.5t29 132.5q0 108 -64 185.5t-154 77.5q-8 0 -13.5 5.5t-5.5 13.5t5.5 13.5t13.5 5.5z" />
    <glyph glyph-name="o" unicode="&#xf4;" horiz-adv-x="691" 
d="M318 581q-90 0 -154.5 -77.5t-64.5 -186t64.5 -185.5t154.5 -77q8 0 13.5 -6t5.5 -14t-5.5 -13.5t-13.5 -5.5q-106 0 -181.5 88.5t-75.5 213t75.5 213t181.5 88.5q8 0 13.5 -5.5t5.5 -13.5t-5.5 -13.5t-13.5 -5.5zM373 619q106 0 181.5 -88.5t75.5 -213t-75.5 -213
t-181.5 -88.5q-8 0 -13.5 5.5t-5.5 13.5t5.5 14t13.5 6q59 0 109.5 35t79.5 95.5t29 132.5q0 108 -64 185.5t-154 77.5q-8 0 -13.5 5.5t-5.5 13.5t5.5 13.5t13.5 5.5z" />
    <glyph glyph-name="o" unicode="&#xf3;" horiz-adv-x="691" 
d="M318 581q-90 0 -154.5 -77.5t-64.5 -186t64.5 -185.5t154.5 -77q8 0 13.5 -6t5.5 -14t-5.5 -13.5t-13.5 -5.5q-106 0 -181.5 88.5t-75.5 213t75.5 213t181.5 88.5q8 0 13.5 -5.5t5.5 -13.5t-5.5 -13.5t-13.5 -5.5zM373 619q106 0 181.5 -88.5t75.5 -213t-75.5 -213
t-181.5 -88.5q-8 0 -13.5 5.5t-5.5 13.5t5.5 14t13.5 6q59 0 109.5 35t79.5 95.5t29 132.5q0 108 -64 185.5t-154 77.5q-8 0 -13.5 5.5t-5.5 13.5t5.5 13.5t13.5 5.5z" />
    <glyph glyph-name="o" unicode="&#xf2;" horiz-adv-x="691" 
d="M318 581q-90 0 -154.5 -77.5t-64.5 -186t64.5 -185.5t154.5 -77q8 0 13.5 -6t5.5 -14t-5.5 -13.5t-13.5 -5.5q-106 0 -181.5 88.5t-75.5 213t75.5 213t181.5 88.5q8 0 13.5 -5.5t5.5 -13.5t-5.5 -13.5t-13.5 -5.5zM373 619q106 0 181.5 -88.5t75.5 -213t-75.5 -213
t-181.5 -88.5q-8 0 -13.5 5.5t-5.5 13.5t5.5 14t13.5 6q59 0 109.5 35t79.5 95.5t29 132.5q0 108 -64 185.5t-154 77.5q-8 0 -13.5 5.5t-5.5 13.5t5.5 13.5t13.5 5.5z" />
    <glyph glyph-name="p" unicode="p" horiz-adv-x="515" 
d="M38 177q8 0 13.5 -5.5t5.5 -13.5v-375q0 -8 -5.5 -13.5t-13.5 -5.5t-13.5 5.5t-5.5 13.5v375q0 8 5.5 13.5t13.5 5.5zM38 180q-8 0 -13.5 5.5t-5.5 13.5v409q0 8 5.5 14t13.5 6t13.5 -6t5.5 -14v-409q0 -8 -5.5 -13.5t-13.5 -5.5zM86 475q-7 4 -9.5 11.5t1.5 14.5
q32 58 82 90.5t107 32.5q95 0 162 -84t67 -202q0 -8 -5.5 -14t-13.5 -6t-14 6t-6 14q0 102 -55.5 174.5t-134.5 72.5q-23 0 -45 -7t-42 -20t-37.5 -32.5t-30.5 -42.5q-4 -8 -11.5 -10t-14.5 2zM477 312q8 0 13.5 -6t5.5 -14q0 -118 -67 -202t-162 -84q-67 0 -124 45t-85 121
q-2 7 1 14.5t11 10.5q3 1 7 0.5t7.5 -2t6 -4t4.5 -6.5q23 -64 70 -102t102 -38q79 0 134.5 72.5t55.5 174.5q0 8 6 14t14 6z" />
    <glyph glyph-name="q" unicode="q" horiz-adv-x="599" 
d="M519 177q8 0 13.5 -5.5t5.5 -13.5v-375q0 -8 -5.5 -13.5t-13.5 -5.5t-14 5.5t-6 13.5v375q0 8 6 13.5t14 5.5zM519 628q8 0 13.5 -6t5.5 -14v-409q0 -8 -5.5 -13.5t-13.5 -5.5t-14 5.5t-6 13.5v409q0 8 6 14t14 6zM80 318q-8 0 -13.5 6t-5.5 14q0 77 30.5 143t83.5 104.5
t115 38.5q57 0 107 -32.5t82 -90.5q4 -7 1.5 -14.5t-9.5 -11.5t-14.5 -2t-11.5 10q-27 48 -68 75t-87 27q-79 0 -135 -72.5t-56 -174.5q0 -8 -5.5 -14t-13.5 -6zM487.5 196.5q7.5 -2.5 10.5 -10t1 -14.5q-28 -76 -85 -121t-124 -45q-95 0 -162 84t-67 202q0 8 5.5 14t13.5 6
t13.5 -6t5.5 -14q0 -102 56 -174.5t135 -72.5q55 0 102 38t70 102q3 8 10.5 11t15 0.5z" />
    <glyph glyph-name="r" unicode="r" horiz-adv-x="298" 
d="M271 597q8 -3 12 -10t1.5 -14.5t-10 -11t-14.5 -1.5q-29 9 -57 -1.5t-46.5 -28.5t-35.5 -44.5t-22 -37t-8 -18.5q-5 -12 -18 -12q-4 0 -7 2q-9 3 -12 14v-405q0 -8 -5.5 -14t-13.5 -6t-13.5 6t-5.5 14v579q0 8 5.5 14t13.5 6t13.5 -6t5.5 -14v-166l1 3q1 3 3 7.5
t7.5 15.5t12 21.5t16 24.5t20 26t23.5 24.5t28 20.5t31.5 13.5t36 5t38.5 -6.5z" />
    <glyph glyph-name="s" unicode="s" horiz-adv-x="469" 
d="M113 323q-45 23 -70.5 59t-25.5 77q0 68 65 116t157.5 48t157.5 -48.5t65 -115.5v-5q0 -8 -6 -14t-14 -5q-8 0 -13.5 6t-4.5 14q0 36 -25 65.5t-67 46.5t-92 17t-92.5 -17t-67.5 -45.5t-25 -62.5q0 -20 9 -38.5t26 -34.5t40 -28q7 -4 9.5 -11.5t-0.5 -14.5
q-6 -11 -17 -11q-5 0 -9 2zM252 321q28 -7 42.5 -11t40.5 -13t41 -16.5t34 -20t29 -25.5t17 -30.5t6 -37.5q0 -44 -29.5 -82t-81 -60t-111.5 -22q-93 0 -158 48t-65 116q0 8 5.5 14t13.5 6t13.5 -6t5.5 -14q0 -52 54 -88.5t130.5 -36.5t130.5 36.5t54 88.5q0 16 -6.5 30
t-22 25.5t-29.5 19.5t-39.5 16.5t-40.5 13t-44 12.5q-62 17 -87 27q-8 3 -11 10.5t0 14.5t10 10.5t15 0.5q24 -10 83 -26z" />
    <glyph glyph-name="s" unicode="&#xdf;" horiz-adv-x="469" 
d="M113 323q-45 23 -70.5 59t-25.5 77q0 68 65 116t157.5 48t157.5 -48.5t65 -115.5v-5q0 -8 -6 -14t-14 -5q-8 0 -13.5 6t-4.5 14q0 36 -25 65.5t-67 46.5t-92 17t-92.5 -17t-67.5 -45.5t-25 -62.5q0 -20 9 -38.5t26 -34.5t40 -28q7 -4 9.5 -11.5t-0.5 -14.5
q-6 -11 -17 -11q-5 0 -9 2zM252 321q28 -7 42.5 -11t40.5 -13t41 -16.5t34 -20t29 -25.5t17 -30.5t6 -37.5q0 -44 -29.5 -82t-81 -60t-111.5 -22q-93 0 -158 48t-65 116q0 8 5.5 14t13.5 6t13.5 -6t5.5 -14q0 -52 54 -88.5t130.5 -36.5t130.5 36.5t54 88.5q0 16 -6.5 30
t-22 25.5t-29.5 19.5t-39.5 16.5t-40.5 13t-44 12.5q-62 17 -87 27q-8 3 -11 10.5t0 14.5t10 10.5t15 0.5q24 -10 83 -26z" />
    <glyph glyph-name="t" unicode="t" horiz-adv-x="306" 
d="M141 140q-8 0 -13.5 5.5t-5.5 13.5v412h-92q-8 0 -13.5 5.5t-5.5 13.5t5.5 13.5t13.5 5.5h92v174q0 8 5.5 13.5t13.5 5.5t14 -5.5t6 -13.5v-174h104q8 0 13.5 -5.5t5.5 -13.5t-5.5 -13.5t-13.5 -5.5h-104v-412q0 -8 -6 -13.5t-14 -5.5zM289 43q1 -4 0.5 -7.5t-2 -7t-4 -6
t-6.5 -4.5q-35 -12 -62 -12q-33 0 -55 17q-19 14 -28 39.5t-9.5 37.5t0.5 19.5t7 13t14 4.5q8 0 13 -6.5t5 -13.5q0 -46 21 -63q26 -19 81 1q5 2 10 1t9 -4.5t6 -8.5z" />
    <glyph glyph-name="u" unicode="u" horiz-adv-x="501" 
d="M456 198q8 0 14 -6t6 -14q0 -74 -66.5 -127t-159.5 -53t-159 53t-66 127q0 8 5.5 14t13.5 6t14 -6t6 -14q0 -58 54.5 -99.5t131.5 -41.5t132 41.5t55 99.5q0 8 5.5 14t13.5 6zM43 213q-8 0 -13.5 5.5t-5.5 13.5v390q0 8 5.5 14t13.5 6t13.5 -6t5.5 -14v-390
q0 -8 -5.5 -13.5t-13.5 -5.5zM452 213q-8 0 -14 5.5t-6 13.5v390q0 8 6 14t14 6t13.5 -6t5.5 -14v-390q0 -8 -5.5 -13.5t-13.5 -5.5z" />
    <glyph glyph-name="u" unicode="&#xfc;" horiz-adv-x="501" 
d="M456 198q8 0 14 -6t6 -14q0 -74 -66.5 -127t-159.5 -53t-159 53t-66 127q0 8 5.5 14t13.5 6t14 -6t6 -14q0 -58 54.5 -99.5t131.5 -41.5t132 41.5t55 99.5q0 8 5.5 14t13.5 6zM43 213q-8 0 -13.5 5.5t-5.5 13.5v390q0 8 5.5 14t13.5 6t13.5 -6t5.5 -14v-390
q0 -8 -5.5 -13.5t-13.5 -5.5zM452 213q-8 0 -14 5.5t-6 13.5v390q0 8 6 14t14 6t13.5 -6t5.5 -14v-390q0 -8 -5.5 -13.5t-13.5 -5.5z" />
    <glyph glyph-name="u" unicode="&#xfb;" horiz-adv-x="501" 
d="M456 198q8 0 14 -6t6 -14q0 -74 -66.5 -127t-159.5 -53t-159 53t-66 127q0 8 5.5 14t13.5 6t14 -6t6 -14q0 -58 54.5 -99.5t131.5 -41.5t132 41.5t55 99.5q0 8 5.5 14t13.5 6zM43 213q-8 0 -13.5 5.5t-5.5 13.5v390q0 8 5.5 14t13.5 6t13.5 -6t5.5 -14v-390
q0 -8 -5.5 -13.5t-13.5 -5.5zM452 213q-8 0 -14 5.5t-6 13.5v390q0 8 6 14t14 6t13.5 -6t5.5 -14v-390q0 -8 -5.5 -13.5t-13.5 -5.5z" />
    <glyph glyph-name="u" unicode="&#xfa;" horiz-adv-x="501" 
d="M456 198q8 0 14 -6t6 -14q0 -74 -66.5 -127t-159.5 -53t-159 53t-66 127q0 8 5.5 14t13.5 6t14 -6t6 -14q0 -58 54.5 -99.5t131.5 -41.5t132 41.5t55 99.5q0 8 5.5 14t13.5 6zM43 213q-8 0 -13.5 5.5t-5.5 13.5v390q0 8 5.5 14t13.5 6t13.5 -6t5.5 -14v-390
q0 -8 -5.5 -13.5t-13.5 -5.5zM452 213q-8 0 -14 5.5t-6 13.5v390q0 8 6 14t14 6t13.5 -6t5.5 -14v-390q0 -8 -5.5 -13.5t-13.5 -5.5z" />
    <glyph glyph-name="u" unicode="&#xf9;" horiz-adv-x="501" 
d="M456 198q8 0 14 -6t6 -14q0 -74 -66.5 -127t-159.5 -53t-159 53t-66 127q0 8 5.5 14t13.5 6t14 -6t6 -14q0 -58 54.5 -99.5t131.5 -41.5t132 41.5t55 99.5q0 8 5.5 14t13.5 6zM43 213q-8 0 -13.5 5.5t-5.5 13.5v390q0 8 5.5 14t13.5 6t13.5 -6t5.5 -14v-390
q0 -8 -5.5 -13.5t-13.5 -5.5zM452 213q-8 0 -14 5.5t-6 13.5v390q0 8 6 14t14 6t13.5 -6t5.5 -14v-390q0 -8 -5.5 -13.5t-13.5 -5.5z" />
    <glyph glyph-name="v" unicode="v" horiz-adv-x="493" 
d="M314.5 226.5q7.5 -2.5 11 -10t0.5 -15.5l-61 -172q-5 -12 -18 -12h-2h-1h-1h-1q-14 0 -19 12l-207 583q-3 8 0.5 15t11 9.5t15 -1t9.5 -10.5l192 -539l46 128q2 8 9.5 11.5t15 1zM466.5 638q7.5 -3 10.5 -10.5t1 -14.5l-136 -367q-5 -13 -18 -13q-4 0 -7 1q-8 3 -11 10.5
t0 14.5l135 367q3 8 10.5 11.5t15 0.5z" />
    <glyph glyph-name="w" unicode="w" horiz-adv-x="787" 
d="M267 226.5q8 -2.5 12 -9.5t1 -15l-51 -172q-4 -14 -19 -14l-1 1h-1h-1l-1 -1q-14 0 -19 14l-174 583q-2 4 -1.5 7.5t2.5 7t5 6t7 3.5q7 2 14 -1.5t10 -11.5l158 -528l35 117q2 8 9 12t15 1.5zM629.5 226.5q7.5 -2.5 11.5 -9.5t2 -15l-52 -172q-4 -14 -19 -14l-0.5 0.5
t-1.5 0.5l-2 -1q-14 0 -18 14l-159 530l-98 -313q-4 -14 -18 -14q-3 0 -6 1q-8 2 -11.5 9.5t-1.5 14.5l115 367q2 8 9 11.5t15 1.5h1q12 -2 16 -14l158 -528l36 117q2 8 9 12t14.5 1.5zM757 638q8 -2 11.5 -9t1.5 -15l-114 -367q-4 -14 -19 -14q-2 0 -5 1q-8 2 -12 9.5
t-1 14.5l114 367q2 5 5.5 8.5t8.5 4.5t10 0z" />
    <glyph glyph-name="x" unicode="x" horiz-adv-x="576" 
d="M326 308l183 -278q5 -7 3.5 -14.5t-8.5 -12.5q-5 -3 -11 -3q-10 0 -16 9l-183 278q-5 7 -3 14.5t8.5 12t14.5 3t12 -8.5zM276 313.5q7 -4.5 8.5 -12t-2.5 -14.5l-186 -280q-5 -8 -16 -8q-6 0 -11 3q-6 4 -7.5 12t2.5 15l185 279q5 7 12.5 8.5t14.5 -3zM299 327
q-6 5 -7.5 12.5t2.5 14.5l185 280q5 7 12.5 8.5t14.5 -3t8.5 -12.5t-2.5 -15l-186 -279q-6 -9 -16 -9q-6 0 -11 3zM98 632l184 -278q4 -7 2.5 -15t-8.5 -12q-5 -3 -10 -3q-11 0 -17 9l-183 278q-4 7 -2.5 14.5t8 12t14.5 3t12 -8.5z" />
    <glyph glyph-name="y" unicode="y" horiz-adv-x="487" 
d="M220 67q-13 0 -18 13l-184 512q-3 7 0.5 14.5t11 10t15 -0.5t9.5 -11l184 -512q3 -8 -0.5 -15t-10.5 -10q-3 -1 -7 -1zM461 612q6 -1 9.5 -5t4.5 -8.5t0 -10.5q-10 -35 -23.5 -80.5t-43 -138t-63.5 -176.5t-73 -169.5t-83 -144t-84 -74.5q-16 -7 -32 -7q-21 0 -40 12
q-7 4 -9 12t2 14.5t12 8.5t15 -2q17 -10 37 -2q31 12 66.5 59.5t69.5 117t66 148t60.5 162.5t49.5 150t36 121q1 5 5 8.5t8.5 4.5t9.5 0z" />
    <glyph glyph-name="y" unicode="&#xff;" horiz-adv-x="487" 
d="M220 67q-13 0 -18 13l-184 512q-3 7 0.5 14.5t11 10t15 -0.5t9.5 -11l184 -512q3 -8 -0.5 -15t-10.5 -10q-3 -1 -7 -1zM461 612q6 -1 9.5 -5t4.5 -8.5t0 -10.5q-10 -35 -23.5 -80.5t-43 -138t-63.5 -176.5t-73 -169.5t-83 -144t-84 -74.5q-16 -7 -32 -7q-21 0 -40 12
q-7 4 -9 12t2 14.5t12 8.5t15 -2q17 -10 37 -2q31 12 66.5 59.5t69.5 117t66 148t60.5 162.5t49.5 150t36 121q1 5 5 8.5t8.5 4.5t9.5 0z" />
    <glyph glyph-name="y" unicode="&#xfd;" horiz-adv-x="487" 
d="M220 67q-13 0 -18 13l-184 512q-3 7 0.5 14.5t11 10t15 -0.5t9.5 -11l184 -512q3 -8 -0.5 -15t-10.5 -10q-3 -1 -7 -1zM461 612q6 -1 9.5 -5t4.5 -8.5t0 -10.5q-10 -35 -23.5 -80.5t-43 -138t-63.5 -176.5t-73 -169.5t-83 -144t-84 -74.5q-16 -7 -32 -7q-21 0 -40 12
q-7 4 -9 12t2 14.5t12 8.5t15 -2q17 -10 37 -2q31 12 66.5 59.5t69.5 117t66 148t60.5 162.5t49.5 150t36 121q1 5 5 8.5t8.5 4.5t9.5 0z" />
    <glyph glyph-name="z" unicode="z" horiz-adv-x="501" 
d="M43 558q-8 0 -13.5 6t-5.5 14t5.5 13.5t13.5 5.5h422q8 0 14 -5.5t6 -13.5t-6 -14t-14 -6h-422zM465 60q8 0 14 -5.5t6 -13.5t-6 -14t-14 -6h-384q-8 0 -14 6t-6 14t6 13.5t14 5.5h384zM446.5 550q6.5 -5 7 -13t-4.5 -14l-393 -473q-6 -7 -15 -7q-7 0 -12 4q-6 5 -7 13
t4 14l393 474q5 6 13 6.5t14.5 -4.5z" />
    <glyph glyph-name="nonbreakingspace" unicode="&#xa0;" horiz-adv-x="375" 
 />
    </font>
</defs>
</svg>
